<svg width="2056" height="439" viewBox="0 0 2056 439" fill="none" xmlns="http://www.w3.org/2000/svg">
<path d="M147.251 136.037V305.055L12.9215 435.865C8.15316 440.508 0 437.22 0 430.653V312.426C0 308.355 3.38887 305.055 7.56925 305.055H147.251L1.96846 149.431C0.701834 148.075 0 146.307 0 144.473V7.38584C0 0.819026 8.15316 -2.46964 12.9215 2.1738L145.034 130.825C146.453 132.207 147.251 134.082 147.251 136.037Z" fill="#1529C1"/>
<path d="M176.357 302.002V132.983L310.686 2.17368C315.454 -2.46976 323.607 0.818911 323.607 7.38571V125.613C323.607 129.683 320.218 132.983 316.038 132.983H176.357L321.639 288.607C322.905 289.964 323.607 291.732 323.607 293.565V430.653C323.607 437.219 315.454 440.508 310.686 435.865L178.574 307.214C177.154 305.831 176.357 303.957 176.357 302.002Z" fill="#1529C1"/>
<path d="M521.811 329.759C593.474 329.759 638.608 285.659 638.608 214.34C638.608 143.022 593.474 98.9211 521.811 98.9211H416.728V329.759H521.811ZM521.811 132.341C575.214 132.341 599.331 155.08 599.331 214.34C599.331 273.6 575.214 296.339 521.811 296.339H453.593V132.341H521.811Z" fill="#020412"/>
<path d="M745.575 333.205C796.566 333.205 832.398 308.054 832.398 271.533V268.432H795.188V271.188C795.188 291.516 780.373 303.23 744.542 303.23C704.92 303.23 688.727 285.659 687.349 252.584H832.742C833.776 247.416 834.121 242.592 834.121 236.39C834.121 184.366 797.944 155.08 744.886 155.08C689.072 155.08 652.551 190.912 652.551 244.315C652.551 301.507 689.416 333.205 745.575 333.205ZM744.197 184.366C780.718 184.366 798.978 199.525 798.978 231.222V231.911H687.693C689.761 201.248 706.298 184.366 744.197 184.366Z" fill="#020412"/>
<path d="M965.006 329.759L1045.63 158.526H1005.32L944.334 293.583H941.578L880.595 158.526H839.596L919.527 329.759H965.006Z" fill="#020412"/>
<path d="M1170.14 329.759V296.339H1139.13C1117.77 296.339 1108.13 290.827 1108.13 269.81V189.534H1170.14V158.526H1108.13V120.971H1071.26V158.526H1042.32V189.534H1071.26V271.877C1071.26 313.566 1094 329.759 1130.86 329.759H1170.14Z" fill="#020412"/>
<path d="M1223.74 329.759V233.634C1223.74 202.971 1235.79 186.777 1265.08 186.777C1290.58 186.777 1300.91 198.147 1300.91 222.609V237.769H1337.78V215.374C1337.78 182.988 1320.89 155.08 1281.96 155.08C1246.82 155.08 1228.21 177.13 1223.05 204.693H1220.63V158.526H1186.53V329.759H1223.74Z" fill="#020412"/>
<path d="M1404.56 333.205C1443.49 333.205 1470.71 315.978 1479.67 287.037H1482.08V329.759H1516.19V225.71C1516.19 184.71 1491.73 155.08 1437.29 155.08C1382.85 155.08 1350.47 184.366 1350.47 223.298V224.676H1387.33V223.298C1387.33 198.147 1402.84 187.811 1434.53 187.811C1467.26 187.811 1479.67 197.803 1479.67 226.054V236.046L1401.8 244.315C1368.04 248.105 1346.68 261.886 1346.68 288.415C1346.68 316.667 1369.07 333.205 1404.56 333.205ZM1383.89 286.003C1383.89 272.567 1393.19 268.088 1412.48 265.676L1479.67 258.096C1479.67 291.86 1453.48 306.331 1414.55 306.331C1393.19 306.331 1383.89 299.785 1383.89 286.003Z" fill="#020412"/>
<path d="M1579.72 329.759V245.004C1579.72 207.794 1596.61 188.5 1634.16 188.5C1669.65 188.5 1684.12 204.693 1684.12 236.735V329.759H1721.33V226.743C1721.33 187.122 1697.9 155.08 1650.35 155.08C1606.94 155.08 1584.2 182.643 1579.03 211.584H1576.62V158.526H1542.51V329.759H1579.72Z" fill="#020412"/>
<path d="M1833.73 333.205C1884.72 333.205 1920.55 308.054 1920.55 271.533V268.432H1883.34V271.188C1883.34 291.516 1868.52 303.23 1832.69 303.23C1793.07 303.23 1776.88 285.659 1775.5 252.584H1920.89C1921.93 247.416 1922.27 242.592 1922.27 236.39C1922.27 184.366 1886.1 155.08 1833.04 155.08C1777.22 155.08 1740.7 190.912 1740.7 244.315C1740.7 301.507 1777.57 333.205 1833.73 333.205ZM1832.35 184.366C1868.87 184.366 1887.13 199.525 1887.13 231.222V231.911H1775.84C1777.91 201.248 1794.45 184.366 1832.35 184.366Z" fill="#020412"/>
<path d="M2055.57 329.759V296.339H2024.56C2003.2 296.339 1993.55 290.827 1993.55 269.81V189.534H2055.57V158.526H1993.55V120.971H1956.69V158.526H1927.75V189.534H1956.69V271.877C1956.69 313.566 1979.43 329.759 2016.29 329.759H2055.57Z" fill="#020412"/>
</svg>
