<svg width="193" height="96" viewBox="0 0 193 96" fill="none" xmlns="http://www.w3.org/2000/svg">
<path d="M114.392 63.2756H120.992V50.1978L131.055 63.2756H138.755L126.655 47.9163L138.184 34.1051H131.177L120.992 46.694V34.1458H114.392V63.2756ZM141.955 63.2756H147.822V32.3125H141.955V63.2756ZM158.953 63.7238C162.296 63.7238 164.17 62.42 165.393 60.7089V63.2756H171.137V49.3829C171.137 43.5977 167.43 41.4792 162.215 41.4792C157 41.4792 153.007 43.72 152.641 48.7718H158.222C158.467 46.9385 159.526 45.757 161.848 45.757C164.537 45.757 165.311 47.1422 165.311 49.6681V50.5237H162.905C156.387 50.5237 151.824 52.3978 151.824 57.3682C151.824 61.8497 155.083 63.7238 158.953 63.7238ZM160.707 59.6089C158.548 59.6089 157.611 58.5904 157.611 57.0422C157.611 54.7607 159.607 54.0274 163.03 54.0274H165.311V55.82C165.311 58.183 163.315 59.6089 160.707 59.6089ZM183.948 63.7238C189.57 63.7238 192.911 61.32 192.911 56.7163C192.911 52.1533 189.977 50.8089 184.64 50.0348C181.544 49.5866 180.526 49.057 180.526 47.7126C180.526 46.4089 181.626 45.5126 183.54 45.5126C185.577 45.5126 186.555 46.3274 186.881 48.0792H192.3C191.77 43.1903 188.226 41.4792 183.5 41.4792C179.14 41.4792 175.066 43.6792 175.066 48.12C175.066 52.2756 177.266 53.9052 182.929 54.7607C185.985 55.2089 187.248 55.82 187.248 57.2867C187.248 58.7534 186.189 59.6089 183.907 59.6089C181.34 59.6089 180.403 58.5089 180.159 56.5941H174.659C174.863 61.1978 178.203 63.7238 183.948 63.7238Z" fill="black"/>
<path d="M49.0116 86.4989C70.8871 86.4989 88.6208 70.7919 88.6208 51.4164C88.6208 32.0409 70.8871 16.334 49.0116 16.334C27.136 16.334 9.40234 32.0409 9.40234 51.4164C9.40234 70.7919 27.136 86.4989 49.0116 86.4989Z" fill="#C1C1C1"/>
<g filter="url(#filter0_i_14_2)">
<path d="M49.0116 91.0268C69.6372 91.0268 86.3575 76.3332 86.3575 58.2077C86.3575 40.0823 69.6372 25.3887 49.0116 25.3887C28.3861 25.3887 11.6658 40.0823 11.6658 58.2077C11.6658 76.3332 28.3861 91.0268 49.0116 91.0268Z" fill="white"/>
</g>
<g filter="url(#filter1_f_14_2)">
<path d="M49.0116 84.2369C69.6372 84.2369 86.3575 68.0233 86.3575 48.0227C86.3575 28.0222 69.6372 11.8086 49.0116 11.8086C28.3861 11.8086 11.6658 28.0222 11.6658 48.0227C11.6658 68.0233 28.3861 84.2369 49.0116 84.2369Z" fill="#6C6C6C"/>
</g>
<path d="M49.0115 81.9735C69.637 81.9735 86.3573 66.2666 86.3573 46.891C86.3573 27.5155 69.637 11.8086 49.0115 11.8086C28.386 11.8086 11.6656 27.5155 11.6656 46.891C11.6656 66.2666 28.386 81.9735 49.0115 81.9735Z" fill="#F7F7F7"/>
<path d="M49.0115 75.182C65.8869 75.182 79.5672 62.0084 79.5672 45.758C79.5672 29.5076 65.8869 16.334 49.0115 16.334C32.1361 16.334 18.4558 29.5076 18.4558 45.758C18.4558 62.0084 32.1361 75.182 49.0115 75.182Z" fill="black"/>
<path d="M36.563 52.553C40.3131 52.553 43.3531 49.5129 43.3531 45.7628C43.3531 42.0127 40.3131 38.9727 36.563 38.9727C32.8129 38.9727 29.7728 42.0127 29.7728 45.7628C29.7728 49.5129 32.8129 52.553 36.563 52.553Z" fill="white"/>
<path d="M61.4601 52.553C65.2102 52.553 68.2502 49.5129 68.2502 45.7628C68.2502 42.0127 65.2102 38.9727 61.4601 38.9727C57.71 38.9727 54.6699 42.0127 54.6699 45.7628C54.6699 49.5129 57.71 52.553 61.4601 52.553Z" fill="white"/>
<defs>
<filter id="filter0_i_14_2" x="11.6658" y="25.3887" width="74.6917" height="74.6922" filterUnits="userSpaceOnUse" color-interpolation-filters="sRGB">
<feFlood flood-opacity="0" result="BackgroundImageFix"/>
<feBlend mode="normal" in="SourceGraphic" in2="BackgroundImageFix" result="shape"/>
<feColorMatrix in="SourceAlpha" type="matrix" values="0 0 0 0 0 0 0 0 0 0 0 0 0 0 0 0 0 0 127 0" result="hardAlpha"/>
<feOffset dy="9.05354"/>
<feGaussianBlur stdDeviation="4.52677"/>
<feComposite in2="hardAlpha" operator="arithmetic" k2="-1" k3="1"/>
<feColorMatrix type="matrix" values="0 0 0 0 0 0 0 0 0 0 0 0 0 0 0 0 0 0 0.25 0"/>
<feBlend mode="normal" in2="shape" result="effect1_innerShadow_14_2"/>
</filter>
<filter id="filter1_f_14_2" x="0.0274506" y="0.170273" width="97.9683" height="95.7044" filterUnits="userSpaceOnUse" color-interpolation-filters="sRGB">
<feFlood flood-opacity="0" result="BackgroundImageFix"/>
<feBlend mode="normal" in="SourceGraphic" in2="BackgroundImageFix" result="shape"/>
<feGaussianBlur stdDeviation="5.81916" result="effect1_foregroundBlur_14_2"/>
</filter>
</defs>
</svg>
