<svg width="330" height="66" viewBox="0 0 330 66" fill="none" xmlns="http://www.w3.org/2000/svg">
<g clip-path="url(#clip0_316_1856)">
<path d="M113.169 53.226H80.1458V45.0165L101.582 18.9018H81.2325V10.6923H112.662V18.9018L91.1534 45.0165H113.169V53.226ZM129.753 54.0044C127.29 54.0044 125.046 53.5798 123.09 52.8013C121.135 52.0229 119.469 50.8905 118.166 49.4043C116.79 47.9888 115.776 46.2196 115.124 44.1672C114.4 42.1148 114.038 39.7794 114.038 37.2316C114.038 34.6838 114.4 32.4192 115.052 30.3668C115.703 28.3144 116.718 26.5451 118.021 25.0589C119.324 23.6435 120.918 22.5111 122.873 21.6618C124.756 20.8834 126.929 20.5295 129.391 20.5295C132.143 20.5295 134.46 20.9542 136.343 21.8742C138.298 22.7234 139.892 23.9265 141.123 25.4128C142.354 26.9697 143.223 28.6682 143.802 30.6498C144.381 32.6315 144.599 34.6838 144.599 36.807V39.4963H123.597V39.9917C123.597 42.1148 124.176 43.7426 125.336 45.0165C126.494 46.2196 128.377 46.8565 130.839 46.8565C132.722 46.8565 134.315 46.4319 135.547 45.7242C136.705 44.9457 137.864 44.0964 138.877 43.0349L143.513 48.6258C142.064 50.3243 140.181 51.5982 137.791 52.589C135.474 53.509 132.794 54.0044 129.753 54.0044ZM129.608 27.182C127.725 27.182 126.277 27.7482 125.191 28.9513C124.105 30.1545 123.597 31.7114 123.597 33.7638V34.1884H135.112V33.693C135.112 31.7114 134.605 30.1545 133.736 28.9513C132.867 27.7482 131.491 27.182 129.608 27.182ZM167.773 47.8473H167.483C167.266 48.6966 166.832 49.5459 166.325 50.2535C165.745 51.032 165.094 51.669 164.369 52.2352C163.573 52.8013 162.703 53.226 161.69 53.509C160.748 53.7921 159.734 54.0044 158.72 54.0044C154.52 54.0044 151.406 52.5182 149.306 49.6874C147.134 46.7857 146.12 42.681 146.12 37.2316C146.12 31.7822 147.134 27.6067 149.306 24.7758C151.406 21.945 154.52 20.5295 158.72 20.5295C160.821 20.5295 162.703 21.0957 164.369 22.228C165.962 23.3604 167.048 24.7758 167.483 26.6159H167.773V8.14453H177.042V53.226H167.773V47.8473ZM161.762 46.6442C163.5 46.6442 164.949 46.2196 166.107 45.3703C167.193 44.5918 167.773 43.3887 167.773 41.9733V32.4899C167.773 31.0745 167.193 29.8714 166.107 29.0929C164.949 28.2436 163.5 27.819 161.762 27.819C160.024 27.819 158.576 28.3851 157.417 29.5883C156.258 30.7914 155.679 32.4192 155.679 34.4715V39.9917C155.679 42.0441 156.258 43.6718 157.417 44.8749C158.576 46.0781 160.024 46.6442 161.762 46.6442ZM202.244 47.8473H201.954C201.737 48.6966 201.303 49.5459 200.796 50.2535C200.216 51.032 199.565 51.669 198.768 52.2352C198.044 52.8013 197.175 53.226 196.161 53.509C195.219 53.7921 194.206 54.0044 193.192 54.0044C188.991 54.0044 185.878 52.5182 183.705 49.6874C181.605 46.7857 180.591 42.681 180.591 37.2316C180.591 31.7822 181.605 27.6067 183.705 24.7758C185.878 21.945 188.991 20.5295 193.192 20.5295C195.292 20.5295 197.175 21.0957 198.768 22.228C200.434 23.3604 201.52 24.7758 201.954 26.6159H202.244V8.14453H211.514V53.226H202.244V47.8473ZM196.234 46.6442C197.972 46.6442 199.42 46.2196 200.579 45.3703C201.665 44.5918 202.244 43.3887 202.244 41.9733V32.4899C202.244 31.0745 201.665 29.8714 200.579 29.0929C199.42 28.2436 197.972 27.819 196.234 27.819C194.495 27.819 193.047 28.3851 191.888 29.5883C190.73 30.7914 190.151 32.4192 190.151 34.4715V39.9917C190.151 42.0441 190.73 43.6718 191.888 44.8749C193.047 46.0781 194.495 46.6442 196.234 46.6442ZM216.655 21.2372H225.853V26.6159H226.215C226.649 24.7758 227.663 23.3604 229.329 22.228C230.995 21.0957 232.878 20.5295 234.977 20.5295C239.105 20.5295 242.292 21.945 244.392 24.7758C246.492 27.6067 247.579 31.7822 247.579 37.2316C247.579 42.681 246.492 46.7857 244.392 49.6874C242.292 52.5182 239.105 54.0044 234.977 54.0044C233.891 54.0044 232.878 53.7921 231.936 53.509C230.995 53.226 230.125 52.8013 229.329 52.2352C228.532 51.669 227.881 51.032 227.374 50.2535C226.794 49.5459 226.432 48.6966 226.215 47.8473H225.853V65.3986H216.655V21.2372ZM231.936 46.6442C233.674 46.6442 235.122 46.0781 236.281 44.8749C237.367 43.6718 237.946 42.0441 237.946 39.9917V34.4715C237.946 32.4192 237.367 30.7914 236.281 29.5883C235.122 28.3851 233.674 27.819 231.936 27.819C230.198 27.819 228.75 28.2436 227.591 29.0929C226.432 29.8714 225.853 31.0745 225.853 32.4899V41.9733C225.853 43.3887 226.432 44.5918 227.591 45.3703C228.75 46.2196 230.198 46.6442 231.936 46.6442ZM275.315 53.226C273.649 53.226 272.273 52.7305 271.187 51.7398C270.028 50.6782 269.376 49.3335 269.087 47.635H268.725C268.218 49.6874 267.059 51.2444 265.394 52.3767C263.655 53.4383 261.555 54.0044 259.093 54.0044C255.834 54.0044 253.299 53.0844 251.561 51.3859C249.823 49.6874 248.954 47.4935 248.954 44.6626C248.954 41.3363 250.185 38.7886 252.72 37.1608C255.182 35.5331 258.659 34.6838 262.931 34.6838H268.145V32.7022C268.145 31.1453 267.711 29.9422 266.914 29.0221C266.045 28.1021 264.669 27.6067 262.714 27.6067C260.904 27.6067 259.455 28.0313 258.369 28.8098C257.283 29.5883 256.341 30.4375 255.689 31.4283L250.185 26.6159C251.489 24.705 253.155 23.2189 255.182 22.1573C257.21 21.0249 259.962 20.5295 263.366 20.5295C268.073 20.5295 271.549 21.5203 273.867 23.5019C276.184 25.4835 277.343 28.3851 277.343 32.2068V46.2196H280.457V53.226H275.315ZM262.497 47.7058C264.09 47.7058 265.394 47.3519 266.48 46.715C267.566 46.0781 268.145 45.0165 268.145 43.601V39.8501H263.655C260.034 39.8501 258.224 40.9825 258.224 43.3887V44.3087C258.224 45.4411 258.586 46.3611 259.311 46.8565C260.107 47.4227 261.12 47.7058 262.497 47.7058ZM302.617 21.2372H311.235L298.634 58.18C297.765 60.6568 296.606 62.4968 295.085 63.6291C293.564 64.8324 291.392 65.3986 288.568 65.3986H282.846V58.3923H289.002L290.088 54.8537L278.646 21.2372H287.843L292.623 36.17L295.013 45.4411H295.375L297.765 36.17L302.617 21.2372Z" fill="#007DE8"/>
<path d="M7.91659 38.5169L15.8432 30.8876L15.1059 30.605H15.0445C14.7986 30.4637 10.313 28.6977 10.313 28.6977C-1.11606 25.3069 -1.3004 4.53829 12.2179 0.511719H52.7113C65.9837 1.92455 69.3632 16.4767 58.5488 27.5674C55.3536 30.7463 51.7282 33.7132 49.3317 35.9738C55.5379 38.4462 65.1828 39.9928 65.1828 53.2271C64.814 60.15 59.8392 64.3009 55.3536 65.1489L15.9047 65.2194C1.15747 67.3389 -5.66312 50.314 7.91659 38.5169ZM21.8651 25.095L39.3774 8.28227H12.2793C2.93943 17.6776 14.0613 24.4592 21.8651 25.095ZM43.0642 41.6252C37.1039 47.1352 30.5905 53.0691 25.429 57.6608L54.862 57.2369C59.3475 56.248 59.4703 48.4067 56.3367 46.9939C51.974 45.0866 47.4884 43.3912 43.0642 41.6252ZM15.9662 57.3076L55.415 18.1721C59.7778 13.5098 52.3426 5.03278 47.7956 9.55386L9.14556 46.7113C3.49245 53.7049 11.3576 61.5459 15.9662 57.3076Z" fill="#007DE8"/>
<path d="M325.588 27.8368L322.353 20.498H323.663L325.926 25.8825L328.189 20.498H329.499L326.263 27.8368H325.588ZM322.114 27.8368V20.498H323.385V27.8368H322.114ZM328.467 27.8368V20.498H329.737V27.8368H328.467ZM317.35 27.8368V21.1362H318.621V27.8368H317.35ZM315.127 21.6148V20.498H320.844V21.6148H315.127Z" fill="#007DE8"/>
</g>
<defs>
<clipPath id="clip0_316_1856">
<rect width="329.178" height="64.895" fill="white" transform="translate(0.562073 0.511719)"/>
</clipPath>
</defs>
</svg>
