<svg width="1280" height="649" viewBox="0 0 1280 649" fill="none" xmlns="http://www.w3.org/2000/svg">
<path d="M25.6 10H1254.4C1261.63 10 1270 17.3898 1270 29.8391V619.161C1270 631.61 1261.63 639 1254.4 639H25.6C18.3671 639 10 631.61 10 619.161V29.8391C10 17.3898 18.3671 10 25.6 10Z" fill="#E0E7EC" stroke="url(#paint0_linear_567_5695)" stroke-width="20"/>
<path fill-rule="evenodd" clip-rule="evenodd" d="M673.976 296.05C681.904 296.05 688.33 288.197 688.33 278.511C688.33 268.824 681.904 260.971 673.976 260.971C666.049 260.971 659.623 268.824 659.623 278.511C659.623 288.197 666.049 296.05 673.976 296.05ZM634.246 402.259H551.634C546.803 402.259 543.856 395.828 546.409 390.861L601.501 283.702C603.871 279.091 609.367 278.971 611.841 283.506C620.452 299.333 638.129 331.856 653.332 360.199L669.292 328.975C671.606 324.442 676.986 324.234 679.54 328.58L715.935 390.592C718.815 395.502 715.966 402.309 710.992 402.369L675.724 402.79L634.246 402.259Z" fill="#94A2AB"/>
<defs>
<linearGradient id="paint0_linear_567_5695" x1="-190.769" y1="320.682" x2="1083.72" y2="869.24" gradientUnits="userSpaceOnUse">
<stop offset="0.00166282" stop-color="#FFD700"/>
<stop offset="0.373958" stop-color="#EFB12C" stop-opacity="0.984121"/>
<stop offset="0.8375" stop-color="#EB2CEF"/>
</linearGradient>
</defs>
</svg>
