<svg width="40" height="40" viewBox="0 0 40 40" fill="none" xmlns="http://www.w3.org/2000/svg">
<path fill-rule="evenodd" clip-rule="evenodd" d="M36.6667 19.9999C36.6667 29.1999 29.1834 36.6666 20 36.6666L19.5338 36.6602C10.5491 36.413 3.33337 29.044 3.33337 19.9999C3.33337 10.8166 10.8 3.33325 20 3.33325C29.1834 3.33325 36.6667 10.8166 36.6667 19.9999ZM16.7 13.3333C16.2167 13.8333 16.2167 14.6166 16.7167 15.0999L21.6334 19.9999L16.7167 24.8999C16.2167 25.3833 16.2167 26.1833 16.7 26.6666C17.2 27.1666 17.9834 27.1666 18.4667 26.6666L24.2834 20.8833C24.5167 20.6499 24.65 20.3333 24.65 19.9999C24.65 19.6666 24.5167 19.3499 24.2834 19.1166L18.4667 13.3333C18.2334 13.0833 17.9167 12.9666 17.6 12.9666C17.2667 12.9666 16.95 13.0833 16.7 13.3333Z" fill="#29279B"/>
</svg>
