<svg width="632" height="601" viewBox="0 0 632 601" fill="none" xmlns="http://www.w3.org/2000/svg">
<g clip-path="url(#clip0_410_1533)">
<path d="M275.5 530L631 319.5L401 260.441C396.374 257.77 388.863 257.77 384.237 260.441L16.5 464.5" fill="#F3F3FC"/>
<path d="M243.744 601.001L627.981 379.148L243.744 601.001Z" fill="#F3F3FC"/>
<path d="M0 469.953L226.98 601.001L0 469.953Z" fill="#F3F3FC"/>
<path d="M109.561 212.155C109.561 208.941 111.806 205.051 114.594 203.444L362.693 60.2011C365.461 58.5944 369.971 58.5944 372.758 60.2011L378.43 63.4724C381.198 65.0791 383.463 68.9699 383.463 72.1831V269.394C383.463 272.588 381.198 276.498 378.43 278.104L130.331 421.347C127.563 422.954 123.033 422.954 120.265 421.347L114.594 418.076C111.826 416.489 109.561 412.559 109.561 409.365V212.155Z" fill="#5D5CD6"/>
<g opacity="0.7">
<path d="M109.561 212.155C109.561 208.941 111.806 205.051 114.594 203.444L362.693 60.2011C365.461 58.5944 369.971 58.5944 372.758 60.2011L378.43 63.4724C381.198 65.0791 383.463 68.9699 383.463 72.1831V269.394C383.463 272.588 381.198 276.498 378.43 278.104L130.331 421.347C127.563 422.954 123.033 422.954 120.265 421.347L114.594 418.076C111.826 416.489 109.561 412.559 109.561 409.365V212.155Z" fill="white"/>
</g>
<path d="M111.032 207.198L125.298 215.425L381.972 67.2268C381.062 65.6589 379.804 64.2845 378.43 63.4715L372.739 60.2195C369.971 58.5935 365.461 58.5935 362.693 60.2195L114.613 203.443C113.2 204.237 111.942 205.63 111.032 207.198Z" fill="#5D5CD6"/>
<path opacity="0.8" d="M111.032 207.198L125.298 215.425L381.972 67.2268C381.062 65.6589 379.804 64.2845 378.43 63.4715L372.739 60.2195C369.971 58.5935 365.461 58.5935 362.693 60.2195L114.613 203.443C113.2 204.237 111.942 205.63 111.032 207.198Z" fill="white"/>
<path opacity="0.1" d="M109.561 212.155V409.365C109.561 412.579 111.826 416.469 114.613 418.076L120.285 421.367C120.71 421.599 121.156 421.812 121.659 421.986C122.298 422.199 122.995 422.373 123.73 422.47C125.046 422.644 126.421 422.586 127.698 422.335C128.027 422.257 128.376 422.18 128.686 422.083C128.898 422.005 129.131 421.947 129.305 421.87C128.376 422.199 127.543 422.122 126.866 421.773C125.917 421.27 125.317 420.128 125.317 418.463V221.233C125.317 219.162 126.363 217.594 127.931 216.955L125.317 215.426L111.051 207.199C110.122 208.767 109.561 210.548 109.561 212.155Z" fill="#5D5CD6"/>
<path opacity="0.05" d="M109.561 212.155V409.365C109.561 412.579 111.826 416.469 114.613 418.076L120.285 421.367C120.71 421.599 121.156 421.812 121.659 421.986C122.298 422.199 122.995 422.373 123.73 422.47C125.046 422.644 126.421 422.586 127.698 422.335C128.027 422.257 128.376 422.18 128.686 422.083C128.898 422.005 129.131 421.947 129.305 421.87C128.376 422.199 127.543 422.122 126.866 421.773C125.917 421.27 125.317 420.128 125.317 418.463V221.233C125.317 219.162 126.363 217.594 127.931 216.955L125.317 215.426L111.051 207.199C110.122 208.767 109.561 210.548 109.561 212.155Z" fill="black"/>
<path opacity="0.2" d="M125.317 215.427L244.46 259.948C252.958 263.104 262.501 259.968 267.437 252.38L286.561 223.073L381.972 67.248L290.375 224.176L383.443 269.491C383.424 271.117 382.824 272.918 381.875 274.505L290.084 224.622L267.843 260.2C262.733 268.369 252.396 271.543 243.608 267.653L227.774 260.665L126.847 421.755C125.898 421.251 125.298 420.109 125.298 418.445V415.154L227.29 260.452L125.317 215.427Z" fill="#5D5CD6"/>
<path opacity="0.05" d="M125.317 215.427L244.46 259.948C252.958 263.104 262.501 259.968 267.437 252.38L286.561 223.073L381.972 67.248L290.375 224.176L383.443 269.491C383.424 271.117 382.824 272.918 381.875 274.505L290.084 224.622L267.843 260.2C262.733 268.369 252.396 271.543 243.608 267.653L227.774 260.665L126.847 421.755C125.898 421.251 125.298 420.109 125.298 418.445V415.154L227.29 260.452L125.317 215.427Z" fill="black"/>
<path d="M446.354 305.745C446.354 308.939 444.089 312.849 441.321 314.456L193.222 457.699C190.454 459.286 185.924 459.286 183.156 457.699L177.484 454.428C174.716 452.84 172.452 448.911 172.452 445.717V248.506C172.452 245.293 174.697 241.402 177.484 239.796L425.583 96.5526C428.352 94.946 432.862 94.946 435.649 96.5526L441.321 99.824C444.089 101.431 446.354 105.321 446.354 108.535" fill="#5D5CD6"/>
<path d="M446.354 305.745C446.354 308.939 444.089 312.849 441.321 314.456L193.222 457.699C190.454 459.286 185.924 459.286 183.156 457.699L177.484 454.428C174.716 452.84 172.452 448.911 172.452 445.717V248.506C172.452 245.293 174.697 241.402 177.484 239.796L425.583 96.5526C428.352 94.946 432.862 94.946 435.649 96.5526L441.321 99.824C444.089 101.431 446.354 105.321 446.354 108.535" fill="white"/>
<path d="M444.882 103.58C443.973 102.012 442.714 100.638 441.34 99.825L435.649 96.573C432.881 94.947 428.371 94.947 425.603 96.573L177.504 239.797C176.091 240.61 174.833 241.984 173.942 243.552L188.208 251.779L444.882 103.58Z" fill="#5D5CD6"/>
<path opacity="0.6" d="M444.882 103.58C443.973 102.012 442.714 100.638 441.34 99.825L435.649 96.573C432.881 94.947 428.371 94.947 425.603 96.573L177.504 239.797C176.091 240.61 174.833 241.984 173.942 243.552L188.208 251.779L444.882 103.58Z" fill="white"/>
<path opacity="0.1" d="M172.471 248.506V445.717C172.471 448.93 174.736 452.821 177.523 454.427L183.195 457.718C183.621 457.95 184.066 458.163 184.569 458.338C185.208 458.551 185.905 458.725 186.641 458.822C187.957 458.996 189.331 458.938 190.609 458.686C190.938 458.609 191.267 458.512 191.577 458.415C191.79 458.338 191.983 458.28 192.177 458.183C191.248 458.512 190.435 458.473 189.776 458.144C188.828 457.641 188.228 456.499 188.228 454.834V257.585C188.228 255.513 189.273 253.946 190.841 253.307L188.228 251.778L173.962 243.551C173.033 245.119 172.471 246.9 172.471 248.506Z" fill="black"/>
<path opacity="0.4" d="M444.786 310.857L352.995 260.973L330.754 296.552C325.643 304.72 315.307 307.895 306.519 304.004L290.685 297.016L189.757 458.106C188.809 457.603 188.208 456.461 188.208 454.796V451.506L290.201 296.803L188.208 251.779L307.351 296.3C315.849 299.455 325.392 296.319 330.328 288.731L349.453 259.425L444.863 103.6" fill="#5D5CD6"/>
<path opacity="0.4" d="M444.883 103.58L353.285 260.508L446.354 305.824" fill="#5D5CD6"/>
<path opacity="0.05" d="M444.786 310.857L352.995 260.973L330.754 296.552C325.643 304.72 315.307 307.895 306.519 304.004L290.685 297.016L189.757 458.106C188.809 457.603 188.208 456.461 188.208 454.796V451.506L290.201 296.803L188.208 251.779L307.351 296.3C315.849 299.455 325.392 296.319 330.328 288.731L349.453 259.425L444.863 103.6" fill="black"/>
<path opacity="0.05" d="M444.883 103.58L353.285 260.508L446.354 305.824" fill="black"/>
<path d="M504.405 350.615L255.939 494.071C253.267 495.619 248.893 495.619 246.221 494.071L240.743 490.916C238.072 489.367 235.885 485.592 235.885 482.495V286.427L494.069 137.357" fill="#5D5CD6"/>
<path opacity="0.2" d="M504.405 350.615L255.939 494.071C253.267 495.619 248.893 495.619 246.221 494.071L240.743 490.916C238.072 489.367 235.885 485.592 235.885 482.495V286.427L494.069 137.357" fill="black"/>
<path d="M488.629 117.226L375.004 75.1242C372.003 74.0015 368.093 75.2597 366.274 77.8923L239.175 263.508C237.356 266.16 235.904 270.902 235.904 274.096C235.904 279.4 235.904 286.427 235.904 286.427L239.853 288.711L494.107 137.357" fill="#5D5CD6"/>
<path opacity="0.1" d="M371.539 78.7822C371.035 79.1693 370.59 79.6533 370.222 80.1759L243.105 265.792C242.176 267.166 241.324 269.102 240.743 271.095L236.794 268.811C237.085 267.843 237.433 266.895 237.82 266.004C237.84 265.966 237.84 265.946 237.859 265.927C238.033 265.54 238.208 265.172 238.401 264.804C238.44 264.746 238.459 264.688 238.498 264.63C238.711 264.224 238.943 263.836 239.175 263.507L366.274 77.8918C366.467 77.6014 366.68 77.3691 366.912 77.1175C367.125 76.9045 367.358 76.6916 367.59 76.498L371.539 78.7822Z" fill="black"/>
<path opacity="0.35" d="M492.578 119.511L378.933 77.3901C376.533 76.4997 373.552 77.1191 371.539 78.7838L367.59 76.4997C369.622 74.8543 372.584 74.2155 375.004 75.106L488.629 117.208" fill="white"/>
<path d="M238.498 264.631C238.711 264.224 238.943 263.856 239.176 263.508C238.943 263.856 238.711 264.224 238.498 264.631Z" fill="#5D5CD6"/>
<path d="M366.912 77.1175C367.125 76.9045 367.358 76.6916 367.59 76.498C367.358 76.6916 367.125 76.9045 366.912 77.1175Z" fill="#5D5CD6"/>
<path d="M236.794 268.832C237.085 267.864 237.433 266.896 237.82 266.025C237.433 266.896 237.085 267.845 236.794 268.832Z" fill="#5D5CD6"/>
<path d="M237.859 265.928C238.033 265.54 238.208 265.173 238.401 264.824C238.227 265.173 238.033 265.54 237.859 265.928Z" fill="#5D5CD6"/>
<path opacity="0.2" d="M237.82 266.005C237.84 265.986 237.84 265.947 237.859 265.928C237.84 265.947 237.84 265.986 237.82 266.005Z" fill="black"/>
<path opacity="0.2" d="M238.401 264.805C238.44 264.747 238.459 264.669 238.498 264.611C238.459 264.689 238.44 264.747 238.401 264.805Z" fill="black"/>
<path opacity="0.2" d="M366.274 77.8934C366.467 77.6224 366.68 77.3708 366.912 77.1191C366.68 77.3708 366.467 77.6224 366.274 77.8934Z" fill="black"/>
<path d="M492.578 119.511L378.953 77.4094C375.952 76.2867 372.042 77.5449 370.223 80.1775L243.124 265.793C241.305 268.445 239.853 273.188 239.853 276.381C239.853 281.685 239.853 288.712 239.853 288.712L498.037 139.643" fill="#5D5CD6"/>
<path opacity="0.05" d="M496.643 122.994L240.743 271.096C240.743 271.096 240.724 271.115 240.724 271.134C240.182 272.973 239.833 274.851 239.833 276.4C239.833 281.703 239.833 288.73 239.833 288.73L498.018 139.661" fill="black"/>
<path d="M474.944 68.0586L263.178 190.318C260.855 191.654 258.978 194.906 258.997 197.577V451.195C258.997 452.53 259.462 453.459 260.216 453.905C260.971 454.35 267.321 458.008 268.075 458.453C268.83 458.899 269.876 458.821 271.037 458.163L482.803 335.903" fill="#F0F0F0"/>
<path d="M482.803 72.5879L271.037 194.848C268.714 196.183 266.837 199.435 266.837 202.107V455.724C266.837 458.395 268.714 459.479 271.037 458.143L482.803 335.884" fill="#FAFAFA"/>
<path d="M406.749 218.134C406.517 221.135 405.994 223.941 405.162 226.574C404.33 229.206 403.304 231.568 402.104 233.659C400.904 235.749 399.568 237.549 398.116 239.059C396.645 240.569 395.174 241.692 393.683 242.466C391.031 243.821 388.999 244.305 387.586 243.937C386.173 243.569 385.108 242.911 384.431 241.963C383.966 242.95 383.502 243.957 382.979 244.983C382.476 246.008 381.837 247.015 381.063 248.022C380.288 249.028 379.34 249.996 378.217 250.964C377.094 251.912 375.701 252.822 374.055 253.655C372.1 254.661 370.339 255.01 368.79 254.7C367.242 254.39 365.945 253.48 364.88 251.97C363.815 250.461 363.041 248.409 362.557 245.815C362.054 243.221 361.88 240.143 362.035 236.582C362.17 233.02 362.596 229.632 363.293 226.419C363.99 223.206 364.919 220.302 366.061 217.67C367.203 215.037 368.577 212.734 370.203 210.778C371.81 208.823 373.61 207.333 375.565 206.326C377.733 205.223 379.34 204.875 380.366 205.3C381.392 205.726 382.224 206.501 382.843 207.623L382.882 206.578C382.921 205.726 383.153 204.894 383.598 204.042C384.044 203.21 384.566 202.629 385.147 202.339L389.289 200.229C389.87 199.938 390.373 199.977 390.76 200.384C391.148 200.79 391.341 201.41 391.302 202.261L390.315 227.019C390.238 228.877 390.586 230.097 391.38 230.697C392.154 231.278 393.083 231.316 394.148 230.755C395.213 230.213 396.142 229.226 396.955 227.774C397.768 226.342 398.271 224.348 398.484 221.812C398.677 219.663 398.813 217.457 398.91 215.153C399.007 212.869 399.007 210.759 398.929 208.823C398.774 204.72 398.271 201.313 397.4 198.564C396.529 195.815 395.232 193.841 393.548 192.621C391.864 191.402 389.696 190.937 387.063 191.208C384.431 191.499 381.275 192.563 377.617 194.441C374.539 196.009 371.752 198.061 369.255 200.597C366.758 203.132 364.59 205.978 362.751 209.152C360.912 212.346 359.402 215.792 358.202 219.509C357.021 223.225 356.189 227.038 355.724 230.91C355.569 231.975 355.453 233.349 355.356 235.014C355.26 236.698 355.182 238.44 355.105 240.259C355.027 242.079 354.969 243.84 354.931 245.525C354.892 247.209 354.892 248.583 354.969 249.609C355.144 253.171 355.686 256.229 356.634 258.784C357.563 261.339 358.879 263.314 360.525 264.707C362.189 266.101 364.203 266.817 366.603 266.837C368.984 266.875 371.732 266.101 374.81 264.514C376.978 263.411 378.875 262.288 380.482 261.165C382.088 260.042 383.502 258.9 384.702 257.739C385.921 256.577 386.966 255.455 387.838 254.371C388.709 253.287 389.502 252.203 390.218 251.157C390.818 250.248 391.302 249.551 391.67 249.106C392.019 248.66 392.503 248.293 393.083 247.983L398.968 244.963C399.549 244.673 400.052 244.692 400.478 245.041C400.904 245.389 401.078 246.086 400.981 247.112C400.962 247.731 400.749 248.409 400.362 249.144C399.181 251.351 397.864 253.655 396.374 256.074C394.903 258.494 393.161 260.875 391.148 263.198C389.134 265.52 386.754 267.805 384.024 270.031C381.275 272.257 378.062 274.328 374.346 276.244C369.739 278.606 365.712 279.69 362.286 279.516C358.86 279.322 356.015 278.161 353.73 276.031C351.446 273.902 349.704 270.96 348.504 267.205C347.304 263.449 346.646 259.21 346.51 254.506C346.51 253.442 346.53 252.009 346.568 250.209C346.607 248.409 346.684 246.512 346.762 244.537C346.839 242.563 346.936 240.685 347.033 238.885C347.13 237.085 347.226 235.672 347.323 234.646C347.788 229.71 348.775 224.658 350.304 219.509C351.833 214.36 353.885 209.462 356.46 204.797C359.034 200.132 362.131 195.873 365.732 192.021C369.332 188.169 373.455 185.053 378.062 182.691C383.482 179.923 388.031 178.549 391.709 178.549C395.406 178.568 398.387 179.613 400.671 181.704C402.955 183.795 404.601 186.795 405.607 190.686C406.614 194.577 407.195 198.99 407.291 203.945C407.311 205.9 407.272 208.223 407.175 210.895C407.078 213.566 406.943 215.986 406.749 218.134ZM370.397 232.284C370.242 236.078 370.629 238.769 371.558 240.337C372.487 241.924 373.862 242.234 375.72 241.285C377.675 240.279 379.204 238.498 380.269 235.943C381.334 233.388 381.934 230.174 382.088 226.303C382.243 222.509 381.856 219.799 380.966 218.173C380.075 216.547 378.643 216.237 376.669 217.244C374.81 218.192 373.339 219.992 372.236 222.644C371.171 225.258 370.552 228.49 370.397 232.284Z" fill="#5D5CD6"/>
<path d="M266.837 455.744C266.837 456.925 267.204 457.796 267.824 458.3C266.411 457.506 260.913 454.312 260.216 453.925C259.442 453.48 258.978 452.55 258.978 451.215V197.578C258.978 196.243 259.442 194.771 260.216 193.455L268.075 197.985C267.301 199.301 266.837 200.791 266.837 202.127V455.744Z" fill="#F3F3FC"/>
<path d="M502.45 345.137L394.864 311.03C386.405 307.275 376.514 310.333 371.616 318.192L256.597 489.154L252.338 491.613L252.299 491.632C251.003 492.348 249.86 492.445 249.009 492L367.3 315.792C372.216 307.933 382.127 304.874 390.567 308.61L502.721 344.769" fill="#5D5CD6"/>
<path opacity="0.4" d="M361.009 334.956L361.28 334.724L256.577 489.136L252.319 491.594L252.28 491.614C251.003 492.33 249.841 492.407 248.99 491.981L356.866 332.479L361.009 334.956Z" fill="white"/>
<path opacity="0.4" d="M502.45 345.137L394.845 311.01C386.405 307.255 376.514 310.314 371.597 318.173L367.338 315.695C372.255 307.875 382.127 304.855 390.567 308.571L502.721 344.75" fill="white"/>
<path d="M505.47 151.45L399.297 312.869L383.443 334.956C381.662 337.472 377.752 338.924 374.713 338.227L361.028 334.975L256.558 296.513C255.803 296.338 255.087 296.319 254.429 296.435C254.158 296.493 253.887 296.571 253.635 296.687L257.564 294.403L357.718 331.104L370.9 335.808C373.92 336.524 377.83 335.072 379.63 332.536L395.483 310.469L502.179 148.295" fill="#5D5CD6"/>
<path opacity="0.4" d="M399.277 312.85L383.424 334.936C381.643 337.453 377.733 338.905 374.694 338.208L361.009 334.956L361.28 334.723L361.938 333.678L370.9 335.807C373.92 336.524 377.83 335.072 379.63 332.536L395.329 310.701L399.277 312.85Z" fill="white"/>
<path opacity="0.1" d="M502.199 148.314L395.503 310.469L395.348 310.682V310.702L399.297 312.85L505.47 151.431" fill="black"/>
<path d="M258.668 299.591L235.885 286.428V482.496C235.885 485.574 238.072 489.368 240.743 490.917L246.221 494.072C248.893 495.62 253.267 495.62 255.939 494.072L258.668 492.485V299.591Z" fill="#5D5CD6"/>
<path opacity="0.15" d="M258.668 299.591L235.885 286.428V482.496C235.885 485.574 238.072 489.368 240.743 490.917L246.221 494.072C248.893 495.62 253.267 495.62 255.939 494.072L258.668 492.485V299.591Z" fill="black"/>
<path d="M504.425 350.634L255.958 494.071L255.919 494.09C254.622 494.826 253.461 494.922 252.609 494.477C251.854 494.09 251.332 493.296 251.157 492.154C251.119 491.883 251.099 491.593 251.099 491.283V300.809C251.099 297.731 253.519 295.795 256.558 296.512L361.028 334.974L374.713 338.226C377.752 338.923 381.663 337.471 383.443 334.955L399.297 312.868L505.47 151.449" fill="#5D5CD6"/>
<path d="M509.264 342.292L399.297 312.85L472.95 368.792" fill="#5D5CD6"/>
<path opacity="0.2" d="M509.264 342.292L399.297 312.85L472.95 368.792" fill="black"/>
<path d="M251.08 491.264C251.08 492.871 251.661 493.974 252.59 494.458C253.442 494.903 254.603 494.806 255.9 494.09L255.939 494.071L341.477 444.691L361.009 334.955L251.08 488.089V491.264Z" fill="#5D5CD6"/>
<path opacity="0.15" d="M371.558 318.153L252.59 494.458C251.661 493.974 251.08 492.871 251.08 491.264V488.09L367.3 315.734C367.3 315.714 367.319 315.695 367.338 315.676L371.558 318.153Z" fill="black"/>
<path d="M504.734 350.421L255.958 494.071L255.919 494.09C254.622 494.826 253.461 494.922 252.609 494.458L371.597 318.114C376.533 310.236 386.482 307.177 394.98 310.933L507.773 347.111" fill="#5D5CD6"/>
<path opacity="0.15" d="M236.795 268.812L240.743 271.097C240.182 272.955 239.834 274.852 239.834 276.4C239.834 281.704 239.834 288.712 239.834 288.712L235.885 286.427C235.885 286.427 235.885 279.401 235.885 274.097C235.885 272.568 236.233 270.671 236.795 268.812Z" fill="black"/>
<path d="M257.565 294.401L253.635 296.685L249.648 294.382L239.833 288.73L243.647 286.465L257.565 294.401Z" fill="#5D5CD6"/>
<path opacity="0.1" d="M257.739 294.479L243.647 286.465L239.833 288.73L249.648 294.382L253.635 296.685L253.674 296.666C253.906 296.569 254.158 296.492 254.429 296.434C255.087 296.318 255.803 296.337 256.558 296.511L264.494 299.434L355.685 332.999L357.118 330.889L257.739 294.479Z" fill="black"/>
<path d="M89.3057 390V395.479M89.3057 399.132V404.611M96.6115 397.306H91.1322M87.4793 397.306H82" stroke="#5D5CD6" stroke-width="0.5" stroke-linecap="round" stroke-linejoin="round"/>
</g>
<path d="M80.4674 218V223.479M80.4674 227.132V232.611M87.7731 225.306H82.2938M78.6409 225.306H73.1616" stroke="#5D5CD6" stroke-width="0.5" stroke-linecap="round" stroke-linejoin="round"/>
<path d="M191.306 110V115.479M191.306 119.132V124.611M198.611 117.306H193.132M189.479 117.306H184" stroke="#5D5CD6" stroke-width="0.5" stroke-linecap="round" stroke-linejoin="round"/>
<path d="M297.295 133.695V139.175M297.295 142.827V148.307M304.844 141.001H299.182M295.408 141.001H289.746" stroke="#5D5CD6" stroke-width="0.5" stroke-linecap="round" stroke-linejoin="round"/>
<path d="M188.683 227.209V232.871M188.683 236.646V242.308M196.233 234.758H190.571M186.796 234.758H181.134" stroke="#5D5CD6" stroke-width="0.5" stroke-linecap="round" stroke-linejoin="round"/>
<path d="M304.601 219.902V225.382M304.601 229.035V234.514M312.15 227.208H306.488M302.714 227.208H297.052" stroke="#5D5CD6" stroke-width="0.5" stroke-linecap="round" stroke-linejoin="round"/>
<path d="M92.4674 124V129.479M92.4674 133.132V138.611M99.7731 131.306H94.2938M90.6409 131.306H85.1616" stroke="#5D5CD6" stroke-width="0.5" stroke-linecap="round" stroke-linejoin="round"/>
<path d="M241.175 40.6113V46.0906M241.175 49.7435V55.2228M248.481 47.9171H243.002M239.349 47.9171H233.87" stroke="#5D5CD6" stroke-width="0.5" stroke-linecap="round" stroke-linejoin="round"/>
<path d="M332.306 27V32.4793M332.306 36.1322V41.6115M339.611 34.3057H334.132M330.479 34.3057H325" stroke="#5D5CD6" stroke-width="0.5" stroke-linecap="round" stroke-linejoin="round"/>
<path d="M376.441 160.969V166.448M376.441 170.101V175.58M383.747 168.274H378.267M374.614 168.274H369.135" stroke="#5D5CD6" stroke-width="0.5" stroke-linecap="round" stroke-linejoin="round"/>
<path d="M115.869 275.914V281.576M115.869 285.351V291.013M123.175 283.463H117.696M114.043 283.463H108.564" stroke="#5D5CD6" stroke-width="0.5" stroke-linecap="round" stroke-linejoin="round"/>
<path d="M234.176 301.727V307.389M234.176 311.163V316.825M241.725 309.276H236.063M232.289 309.276H226.627" stroke="#5D5CD6" stroke-width="0.5" stroke-linecap="round" stroke-linejoin="round"/>
<path d="M369.282 429.265L374.218 431.644M377.508 433.23L382.444 435.609M379.035 425.856L376.656 430.792M375.07 434.082L372.69 439.018" stroke="#5D5CD6" stroke-width="0.5" stroke-linecap="round" stroke-linejoin="round"/>
<path d="M579.44 286.801L584.375 289.18M587.666 290.767L592.602 293.146M589.299 283.173L586.84 288.273M585.201 291.674L582.743 296.774" stroke="#5D5CD6" stroke-width="0.5" stroke-linecap="round" stroke-linejoin="round"/>
<path d="M506.278 439.801L511.378 442.26M514.779 443.899L519.879 446.357M516.357 436.279L513.898 441.379M512.259 444.779L509.8 449.88" stroke="#5D5CD6" stroke-width="0.5" stroke-linecap="round" stroke-linejoin="round"/>
<path d="M586.44 362.801L591.375 365.18M594.666 366.767L599.602 369.146M596.299 359.173L593.84 364.273M592.201 367.674L589.743 372.774" stroke="#5D5CD6" stroke-width="0.5" stroke-linecap="round" stroke-linejoin="round"/>
<path d="M402.334 352.581L407.27 354.96M410.56 356.547L415.496 358.926M412.087 349.172L409.708 354.108M408.122 357.399L405.743 362.334" stroke="#5D5CD6" stroke-width="0.5" stroke-linecap="round" stroke-linejoin="round"/>
<path d="M399.824 491.259L404.759 493.638M408.05 495.224L412.986 497.604M409.577 487.85L407.198 492.786M405.612 496.076L403.232 501.012" stroke="#5D5CD6" stroke-width="0.5" stroke-linecap="round" stroke-linejoin="round"/>
<path d="M309.117 456.493L314.052 458.872M317.343 460.459L322.279 462.838M318.87 453.084L316.491 458.02M314.905 461.311L312.525 466.247" stroke="#5D5CD6" stroke-width="0.5" stroke-linecap="round" stroke-linejoin="round"/>
<path d="M456.334 408.581L461.27 410.96M464.56 412.547L469.496 414.926M466.087 405.172L463.708 410.108M462.122 413.399L459.743 418.334" stroke="#5D5CD6" stroke-width="0.5" stroke-linecap="round" stroke-linejoin="round"/>
<path d="M508.44 362.801L513.54 365.26M516.94 366.899L522.041 369.357M518.518 359.279L516.06 364.379M514.421 367.779L511.962 372.88" stroke="#5D5CD6" stroke-width="0.5" stroke-linecap="round" stroke-linejoin="round"/>
<path d="M182.767 430.466L187.703 432.845M190.993 434.431L195.929 436.811M192.52 427.057L190.141 431.993M188.555 435.283L186.176 440.219" stroke="#5D5CD6" stroke-width="0.5" stroke-linecap="round" stroke-linejoin="round"/>
<path d="M52.4397 309.799L57.3755 312.178M60.666 313.765L65.6018 316.144M62.2989 306.171L59.8403 311.271M58.2012 314.672L55.7427 319.772" stroke="#5D5CD6" stroke-width="0.5" stroke-linecap="round" stroke-linejoin="round"/>
<path d="M159.677 484.62L164.777 487.078M168.177 488.717L173.278 491.176M169.755 481.097L167.297 486.198M165.658 489.598L163.199 494.698" stroke="#5D5CD6" stroke-width="0.5" stroke-linecap="round" stroke-linejoin="round"/>
<path d="M152.44 363.799L157.375 366.178M160.666 367.765L165.602 370.144M162.299 360.171L159.84 365.271M158.201 368.672L155.743 373.772" stroke="#5D5CD6" stroke-width="0.5" stroke-linecap="round" stroke-linejoin="round"/>
<path d="M97.9883 414.062L102.924 416.441M106.215 418.027L111.15 420.406M107.742 410.653L105.362 415.589M103.776 418.879L101.397 423.815" stroke="#5D5CD6" stroke-width="0.5" stroke-linecap="round" stroke-linejoin="round"/>
<path d="M259.584 448.975L264.685 451.434M268.085 453.073L273.185 455.531M269.663 445.453L267.204 450.553M265.565 453.953L263.107 459.053" stroke="#5D5CD6" stroke-width="0.5" stroke-linecap="round" stroke-linejoin="round"/>
<path d="M557.356 147.284L562.292 149.663M565.582 151.25L570.518 153.629M567.11 143.876L564.73 148.811M563.144 152.102L560.765 157.038" stroke="#5D5CD6" stroke-width="0.5" stroke-linecap="round" stroke-linejoin="round"/>
<path d="M437.191 62.9945L442.127 65.3738M445.418 66.96L450.354 69.3392M447.051 59.3665L444.592 64.4668M442.953 67.867L440.494 72.9673" stroke="#5D5CD6" stroke-width="0.5" stroke-linecap="round" stroke-linejoin="round"/>
<path d="M474.266 201.438L479.366 203.896M482.767 205.535L487.867 207.994M484.345 197.916L481.886 203.016M480.247 206.416L477.788 211.516" stroke="#5D5CD6" stroke-width="0.5" stroke-linecap="round" stroke-linejoin="round"/>
<path d="M519.02 83.8461L523.955 86.2253M527.246 87.8115L532.182 90.1908M528.879 80.218L526.42 85.3183M524.781 88.7185L522.322 93.8188" stroke="#5D5CD6" stroke-width="0.5" stroke-linecap="round" stroke-linejoin="round"/>
<path d="M422.578 180.88L427.513 183.259M430.804 184.845L435.74 187.225M432.331 177.471L429.952 182.407M428.366 185.698L425.986 190.633" stroke="#5D5CD6" stroke-width="0.5" stroke-linecap="round" stroke-linejoin="round"/>
<path d="M533.174 233.791L538.274 236.25M541.674 237.889L546.775 240.348M543.252 230.269L540.794 235.369M539.155 238.77L536.696 243.87" stroke="#5D5CD6" stroke-width="0.5" stroke-linecap="round" stroke-linejoin="round"/>
<g clip-path="url(#clip1_410_1533)">
<path d="M553.37 115L600.323 84.873L621 91.5235L553.37 115Z" fill="#5D5CD6"/>
<path d="M553.37 115L593.953 81.0822L584.929 70.6543L553.37 115Z" fill="#5D5CD6"/>
<path d="M593.953 81.082V88.9562L553.37 114.999L593.953 81.082Z" fill="#5D5CD6"/>
<path opacity="0.25" d="M593.953 81.082V88.9562L553.37 114.999L593.953 81.082Z" fill="black"/>
<path d="M600.708 80.4308C600.443 80.4308 600.177 80.3244 599.978 80.1116C599.607 79.7126 599.633 79.0741 600.031 78.7017C601.425 77.4115 602.712 76.0016 603.867 74.5119C604.198 74.073 604.822 73.9932 605.26 74.339C605.698 74.6715 605.778 75.2967 605.433 75.7356C604.212 77.3051 602.858 78.8081 601.372 80.1781C601.199 80.3377 600.96 80.4308 600.708 80.4308ZM608.18 70.495C608.034 70.495 607.875 70.4551 607.742 70.3886C607.251 70.1359 607.052 69.5374 607.304 69.0452C608.458 66.7442 609.334 64.2968 609.932 61.7829C610.051 61.2509 610.595 60.9183 611.126 61.0381C611.657 61.1711 611.989 61.7031 611.869 62.2351C611.245 64.9086 610.303 67.5023 609.082 69.9364C608.896 70.2955 608.551 70.495 608.18 70.495ZM611.803 56.4359C611.79 56.4359 611.776 56.4359 611.763 56.4359C611.219 56.4093 610.794 55.9438 610.807 55.3985C610.834 54.8664 610.847 54.3211 610.847 53.789C610.847 51.754 610.675 49.6923 610.33 47.6573C610.237 47.112 610.608 46.5932 611.139 46.5134C611.67 46.4203 612.188 46.7927 612.281 47.3248C612.639 49.4662 612.825 51.6476 612.825 53.789C612.825 54.361 612.811 54.9196 612.785 55.4916C612.772 56.0236 612.334 56.4359 611.803 56.4359ZM609.666 42.0576C609.255 42.0576 608.87 41.8049 608.724 41.3926C607.888 38.9851 606.813 36.5909 605.512 34.3031C605.247 33.8243 605.406 33.2125 605.884 32.9464C606.362 32.6671 606.972 32.84 607.237 33.3189C608.591 35.713 609.732 38.2136 610.608 40.7408C610.794 41.2595 610.515 41.8315 609.998 42.0044C609.878 42.031 609.772 42.0576 609.666 42.0576ZM602.699 29.2754C602.407 29.2754 602.102 29.1424 601.916 28.8897C600.363 26.8679 598.598 24.9127 596.687 23.0904C596.289 22.7047 596.275 22.0796 596.647 21.6805C597.019 21.2815 597.656 21.2682 598.054 21.6406C600.044 23.5427 601.876 25.5644 603.495 27.666C603.827 28.1049 603.747 28.73 603.309 29.0626C603.123 29.2089 602.911 29.2754 602.699 29.2754ZM592.294 19.0603C592.082 19.0603 591.869 18.9938 591.697 18.8607C589.666 17.3178 587.463 15.868 585.167 14.5379C584.69 14.2586 584.53 13.6468 584.809 13.1812C585.088 12.7024 585.685 12.5428 586.163 12.8221C588.538 14.1921 590.808 15.6951 592.905 17.2912C593.342 17.6238 593.435 18.2489 593.104 18.6878C592.905 18.9272 592.599 19.0603 592.294 19.0603ZM487.995 15.203C487.65 15.203 487.318 15.0301 487.133 14.6975C486.854 14.2187 487.026 13.6069 487.491 13.3409C489.8 12.0108 492.189 10.7472 494.618 9.60328C495.122 9.36387 495.706 9.57668 495.945 10.0821C496.184 10.5743 495.971 11.1728 495.467 11.4122C493.091 12.5295 490.742 13.7665 488.486 15.07C488.34 15.1631 488.168 15.203 487.995 15.203ZM579.793 11.5585C579.647 11.5585 579.501 11.5319 579.355 11.4654C576.992 10.3215 574.564 9.27076 572.122 8.32639C571.604 8.12688 571.352 7.55494 571.551 7.0362C571.75 6.51746 572.321 6.26475 572.838 6.46426C575.333 7.42193 577.815 8.49931 580.217 9.66979C580.708 9.90921 580.921 10.5077 580.682 10.9999C580.522 11.359 580.164 11.5585 579.793 11.5585ZM501.147 8.88503C500.749 8.88503 500.377 8.64562 500.218 8.24659C500.019 7.72785 500.271 7.15591 500.775 6.9564C503.257 5.98543 505.818 5.09426 508.38 4.32281C508.897 4.1632 509.455 4.46912 509.614 4.98786C509.773 5.51989 509.481 6.06523 508.95 6.22484C506.442 6.983 503.934 7.84756 501.505 8.80523C501.386 8.85843 501.266 8.88503 501.147 8.88503ZM566.216 6.23814C566.123 6.23814 566.017 6.22484 565.924 6.19824C563.429 5.44009 560.868 4.76174 558.306 4.2031C557.775 4.08339 557.43 3.55135 557.55 3.01932C557.669 2.47398 558.2 2.14145 558.731 2.26116C561.345 2.8331 563.96 3.51145 566.508 4.29621C567.039 4.45582 567.331 5.01446 567.172 5.5465C567.039 5.95882 566.654 6.23814 566.216 6.23814ZM515.082 4.56223C514.631 4.56223 514.219 4.2563 514.113 3.79077C513.994 3.25873 514.325 2.71339 514.856 2.59368C517.457 1.99514 520.112 1.48971 522.753 1.10398C523.283 1.02417 523.801 1.3966 523.881 1.94194C523.96 2.48728 523.589 2.99271 523.045 3.07252C520.457 3.45825 517.842 3.95038 515.294 4.53562C515.228 4.56223 515.148 4.56223 515.082 4.56223ZM551.989 3.03262C551.936 3.03262 551.896 3.03262 551.843 3.01932C549.255 2.63359 546.628 2.36757 544 2.19466C543.456 2.15475 543.031 1.68922 543.071 1.13058C543.111 0.585242 543.575 0.159611 544.133 0.199514C546.8 0.372427 549.494 0.651746 552.122 1.03747C552.666 1.11728 553.038 1.62272 552.958 2.16805C552.905 2.68679 552.48 3.03262 551.989 3.03262ZM529.494 2.32767C528.977 2.32767 528.552 1.92864 528.499 1.4099C528.459 0.864562 528.857 0.385727 529.415 0.332524C532.069 0.119709 534.776 0 537.444 0C537.988 0 538.439 0.438931 538.439 0.997571C538.439 1.54291 538.001 1.99514 537.444 1.99514C534.829 1.99514 532.188 2.11485 529.574 2.32767C529.547 2.32767 529.521 2.32767 529.494 2.32767Z" fill="#E0E0E0"/>
</g>
<defs>
<clipPath id="clip0_410_1533">
<rect width="628" height="542" fill="white" transform="translate(0 59)"/>
</clipPath>
<clipPath id="clip1_410_1533">
<rect width="134" height="115" fill="white" transform="translate(487)"/>
</clipPath>
</defs>
</svg>
