<svg width="197" height="112" viewBox="0 0 197 112" fill="none" xmlns="http://www.w3.org/2000/svg">
<path d="M116.392 65.2756H122.992V52.1978L133.055 65.2756H140.755L128.655 49.9163L140.184 36.1051H133.177L122.992 48.694V36.1458H116.392V65.2756ZM143.955 65.2756H149.822V34.3125H143.955V65.2756ZM160.953 65.7238C164.296 65.7238 166.17 64.42 167.393 62.7089V65.2756H173.137V51.3829C173.137 45.5977 169.43 43.4792 164.215 43.4792C159 43.4792 155.007 45.72 154.641 50.7718H160.222C160.467 48.9385 161.526 47.757 163.848 47.757C166.537 47.757 167.311 49.1422 167.311 51.6681V52.5237H164.905C158.387 52.5237 153.824 54.3978 153.824 59.3682C153.824 63.8497 157.083 65.7238 160.953 65.7238ZM162.707 61.6089C160.548 61.6089 159.611 60.5904 159.611 59.0422C159.611 56.7607 161.607 56.0274 165.03 56.0274H167.311V57.82C167.311 60.183 165.315 61.6089 162.707 61.6089ZM185.948 65.7238C191.57 65.7238 194.911 63.32 194.911 58.7163C194.911 54.1533 191.977 52.8089 186.64 52.0348C183.544 51.5866 182.526 51.057 182.526 49.7126C182.526 48.4089 183.626 47.5126 185.54 47.5126C187.577 47.5126 188.555 48.3274 188.881 50.0792H194.3C193.77 45.1903 190.226 43.4792 185.5 43.4792C181.14 43.4792 177.066 45.6792 177.066 50.12C177.066 54.2756 179.266 55.9052 184.929 56.7607C187.985 57.2089 189.248 57.82 189.248 59.2867C189.248 60.7534 188.189 61.6089 185.907 61.6089C183.34 61.6089 182.403 60.5089 182.159 58.5941H176.659C176.863 63.1978 180.203 65.7238 185.948 65.7238Z" fill="black"/>
<path d="M51.0116 88.4989C72.8872 88.4989 90.6209 72.7919 90.6209 53.4164C90.6209 34.0409 72.8872 18.334 51.0116 18.334C29.1361 18.334 11.4024 34.0409 11.4024 53.4164C11.4024 72.7919 29.1361 88.4989 51.0116 88.4989Z" fill="#C1C1C1"/>
<g filter="url(#filter0_i_316_1844)">
<path d="M51.0117 93.0268C71.6372 93.0268 88.3575 78.3332 88.3575 60.2077C88.3575 42.0823 71.6372 27.3887 51.0117 27.3887C30.3861 27.3887 13.6658 42.0823 13.6658 60.2077C13.6658 78.3332 30.3861 93.0268 51.0117 93.0268Z" fill="white"/>
</g>
<g filter="url(#filter1_f_316_1844)">
<path d="M51.0116 86.2369C71.6372 86.2369 88.3575 70.0233 88.3575 50.0227C88.3575 30.0222 71.6372 13.8086 51.0116 13.8086C30.3861 13.8086 13.6658 30.0222 13.6658 50.0227C13.6658 70.0233 30.3861 86.2369 51.0116 86.2369Z" fill="#6C6C6C"/>
</g>
<path d="M51.0116 83.9735C71.6372 83.9735 88.3575 68.2666 88.3575 48.891C88.3575 29.5155 71.6372 13.8086 51.0116 13.8086C30.3861 13.8086 13.6658 29.5155 13.6658 48.891C13.6658 68.2666 30.3861 83.9735 51.0116 83.9735Z" fill="#F7F7F7"/>
<path d="M51.0116 77.182C67.887 77.182 81.5673 64.0084 81.5673 47.758C81.5673 31.5076 67.887 18.334 51.0116 18.334C34.1362 18.334 20.4559 31.5076 20.4559 47.758C20.4559 64.0084 34.1362 77.182 51.0116 77.182Z" fill="black"/>
<path d="M38.563 54.553C42.3131 54.553 45.3532 51.5129 45.3532 47.7628C45.3532 44.0127 42.3131 40.9727 38.563 40.9727C34.8129 40.9727 31.7729 44.0127 31.7729 47.7628C31.7729 51.5129 34.8129 54.553 38.563 54.553Z" fill="white"/>
<path d="M63.4602 54.553C67.2103 54.553 70.2504 51.5129 70.2504 47.7628C70.2504 44.0127 67.2103 40.9727 63.4602 40.9727C59.7101 40.9727 56.67 44.0127 56.67 47.7628C56.67 51.5129 59.7101 54.553 63.4602 54.553Z" fill="white"/>
<defs>
<filter id="filter0_i_316_1844" x="13.6658" y="27.3887" width="74.6917" height="74.6922" filterUnits="userSpaceOnUse" color-interpolation-filters="sRGB">
<feFlood flood-opacity="0" result="BackgroundImageFix"/>
<feBlend mode="normal" in="SourceGraphic" in2="BackgroundImageFix" result="shape"/>
<feColorMatrix in="SourceAlpha" type="matrix" values="0 0 0 0 0 0 0 0 0 0 0 0 0 0 0 0 0 0 127 0" result="hardAlpha"/>
<feOffset dy="9.05354"/>
<feGaussianBlur stdDeviation="4.52677"/>
<feComposite in2="hardAlpha" operator="arithmetic" k2="-1" k3="1"/>
<feColorMatrix type="matrix" values="0 0 0 0 0 0 0 0 0 0 0 0 0 0 0 0 0 0 0.25 0"/>
<feBlend mode="normal" in2="shape" result="effect1_innerShadow_316_1844"/>
</filter>
<filter id="filter1_f_316_1844" x="2.02747" y="2.17027" width="97.9683" height="95.7044" filterUnits="userSpaceOnUse" color-interpolation-filters="sRGB">
<feFlood flood-opacity="0" result="BackgroundImageFix"/>
<feBlend mode="normal" in="SourceGraphic" in2="BackgroundImageFix" result="shape"/>
<feGaussianBlur stdDeviation="5.81916" result="effect1_foregroundBlur_316_1844"/>
</filter>
</defs>
</svg>
