<svg width="355" height="106" viewBox="0 0 355 106" fill="none" xmlns="http://www.w3.org/2000/svg">
<g clip-path="url(#clip0_316_1812)">
<path d="M91.614 42.2195L63.2113 57.8641V29.7734L91.614 42.2195Z" fill="#1A73EA"/>
<path d="M63.2111 29.7734V57.8641L31.2831 75.4397V47.3488L63.2111 29.7734Z" fill="#6C72DC"/>
<path d="M93.9671 66.7234L22.4957 105.131V80.2716L31.2831 75.4406L63.2112 57.8652L63.897 58.064L93.9671 66.7234Z" fill="#004BE9"/>
<path d="M91.614 42.2129L63.2113 57.8576L63.8971 58.0564L93.9671 66.7157L91.614 42.2129Z" fill="#1A7AF6"/>
<path d="M31.2815 47.3535V75.4442L2.87009 62.9898L31.2815 47.3535Z" fill="#6C7EE8"/>
<path d="M30.5935 47.1476L0.523705 38.4883L2.87684 62.9913L31.2882 47.3548L30.5935 47.1476Z" fill="#93AAFD"/>
<path d="M71.9978 0.0761719V24.9354L63.2105 29.7746L31.2825 47.3501L30.5964 47.1511L0.526611 38.4918L71.9978 0.0761719Z" fill="#2CDAFF"/>
<path d="M31.2831 47.3488L63.2111 57.8641V29.7734L31.2831 47.3488Z" fill="#1A62C5"/>
<path d="M153.024 34.7336L145.546 37.1077C145.22 35.1992 144.274 33.4511 142.707 31.8707C141.141 30.2905 138.878 29.4966 135.918 29.4966C133.473 29.4966 131.452 30.1989 129.855 31.5959C128.266 32.9929 127.463 34.6724 127.463 36.6266C127.463 40.0236 129.378 42.1458 133.208 42.9856L140.27 44.4512C144.517 45.291 147.794 46.9933 150.11 49.5508C152.419 52.1158 153.569 55.1617 153.569 58.7038C153.569 62.8031 152.01 66.33 148.891 69.2843C145.773 72.2385 141.534 73.7194 136.183 73.7194C130.408 73.7194 125.904 72.1927 122.68 69.1469C119.447 66.0934 117.623 62.5435 117.207 58.49L124.965 56.2533C125.245 59.0472 126.351 61.3984 128.288 63.3069C130.226 65.2153 132.86 66.1695 136.183 66.1695C139.044 66.1695 141.247 65.5284 142.798 64.2459C144.342 62.9634 145.115 61.322 145.115 59.322C145.115 57.6883 144.539 56.2839 143.381 55.093C142.223 53.9021 140.611 53.0775 138.529 52.6119L131.604 51.1462C127.789 50.36 124.753 48.7569 122.513 46.3293C120.272 43.9094 119.152 40.8787 119.152 37.245C119.152 33.0999 120.795 29.5349 124.072 26.5575C127.35 23.5804 131.278 22.0918 135.85 22.0918C141.065 22.0918 145.061 23.3591 147.832 25.9012C150.602 28.4431 152.335 31.3821 153.024 34.7336Z" fill="#160059"/>
<path d="M164.524 85.9399H156.561V38.6483H164.319V43.2591C165.197 41.7245 166.583 40.4423 168.475 39.4191C170.367 38.3962 172.562 37.8848 175.052 37.8848C179.904 37.8848 183.712 39.549 186.482 42.8774C189.252 46.2057 190.637 50.4578 190.637 55.6259C190.637 60.794 189.184 65.069 186.27 68.4431C183.363 71.8173 179.526 73.5044 174.772 73.5044C172.464 73.5044 170.405 73.0617 168.604 72.1761C166.802 71.2906 165.44 70.1761 164.516 68.8249V85.9399H164.524ZM182.607 55.6259C182.607 52.4579 181.774 49.9081 180.116 47.9767C178.451 46.0454 176.264 45.076 173.539 45.076C170.859 45.076 168.679 46.0454 166.991 47.9767C165.304 49.9081 164.463 52.4579 164.463 55.6259C164.463 58.8397 165.304 61.4199 166.991 63.3819C168.679 65.3361 170.859 66.3132 173.539 66.3132C176.218 66.3132 178.398 65.3361 180.086 63.3819C181.759 61.4199 182.607 58.8397 182.607 55.6259Z" fill="#160059"/>
<path d="M202.966 52.6883V72.6661H194.927V22.0918H202.966V41.9323C205.138 39.0923 208.347 37.6724 212.594 37.6724C216.567 37.6724 219.61 38.932 221.737 41.4437C223.863 43.9552 224.925 47.1996 224.925 51.1539V72.6736H216.885V52.5509C216.885 50.2684 216.333 48.4438 215.22 47.0697C214.115 45.6956 212.359 45.0087 209.96 45.0087C207.833 45.0087 206.16 45.7337 204.941 47.1767C203.715 48.6118 203.056 50.4515 202.966 52.6883Z" fill="#160059"/>
<path d="M254.293 60.7988L261.083 62.9668C260.115 66.089 258.298 68.6617 255.649 70.6847C252.992 72.7076 249.729 73.723 245.847 73.723C241.048 73.723 236.968 72.0742 233.624 68.761C230.277 65.4556 228.604 61.028 228.604 55.4856C228.604 50.2718 230.233 45.9892 233.487 42.6303C236.741 39.2791 240.585 37.5996 245.022 37.5996C250.191 37.5996 254.234 39.195 257.14 42.3861C260.046 45.5771 261.508 49.8748 261.508 55.2721C261.508 56.7148 261.44 57.5775 261.295 57.8597H236.636C236.726 60.4247 237.664 62.5394 239.443 64.2189C241.222 65.8984 243.357 66.7304 245.847 66.7304C250.185 66.7381 253.001 64.7533 254.293 60.7988ZM236.84 51.9206H253.393C253.302 49.7755 252.554 47.9892 251.145 46.5388C249.738 45.096 247.717 44.3707 245.083 44.3707C242.684 44.3707 240.737 45.1266 239.262 46.6381C237.785 48.1649 236.977 49.9206 236.84 51.9206Z" fill="#160059"/>
<path d="M285.462 38.4346V46.6791C284.537 46.5417 283.659 46.473 282.827 46.473C276.778 46.473 273.751 49.8013 273.751 56.4657V72.6725H265.721V38.6484H273.546V44.0989C274.335 42.2821 275.598 40.847 277.355 39.801C279.11 38.7552 281.094 38.2285 283.311 38.2285C284.053 38.2285 284.764 38.2972 285.462 38.4346Z" fill="#160059"/>
<path d="M303.194 37.6074C308.273 37.6074 312.468 39.3098 315.768 42.7068C319.068 46.1038 320.717 50.417 320.717 55.631C320.717 60.8449 319.068 65.1655 315.768 68.5857C312.468 72.0056 308.273 73.7231 303.194 73.7231C298.161 73.7231 293.991 72.0133 290.69 68.5857C287.39 65.1655 285.741 60.8449 285.741 55.631C285.741 50.417 287.39 46.1038 290.69 42.7068C293.991 39.3021 298.154 37.6074 303.194 37.6074ZM296.512 63.555C298.335 65.4863 300.561 66.4557 303.194 66.4557C305.829 66.4557 308.053 65.5015 309.878 63.5931C311.704 61.6846 312.619 59.0281 312.619 55.631C312.619 52.2796 311.71 49.6613 309.878 47.7681C308.053 45.8825 305.829 44.936 303.194 44.936C300.561 44.936 298.335 45.8748 296.512 47.7681C294.687 49.6536 293.771 52.2721 293.771 55.631C293.771 58.9823 294.68 61.6234 296.512 63.555Z" fill="#160059"/>
<path d="M333.042 53.0371V72.6635H325.004V38.6471H332.831V43.1893C333.89 41.3266 335.312 39.9374 337.091 39.0364C338.87 38.128 340.77 37.6777 342.807 37.6777C346.781 37.6777 349.799 38.9373 351.882 41.4488C353.963 43.9603 355 47.2047 355 51.159V72.6789H346.961V52.5485C346.961 50.266 346.409 48.4414 345.297 47.0674C344.192 45.6933 342.435 45.0061 340.035 45.0061C337.818 45.0061 336.1 45.762 334.874 47.2734C333.654 48.7849 333.042 50.7088 333.042 53.0371Z" fill="#160059"/>
<path d="M355.008 71.1621H346.97V72.6736H355.008V71.1621Z" fill="#6424FF"/>
<path d="M224.927 71.1621H216.888V72.6736H224.927V71.1621Z" fill="#6424FF"/>
<path d="M145.551 37.1032L153.029 34.7291C152.923 34.2023 152.787 33.6833 152.628 33.1719L145.142 35.5841C145.316 36.0803 145.46 36.5918 145.551 37.1032Z" fill="#6424FF"/>
<path d="M333.051 71.1621H325.013V72.6736H333.051V71.1621Z" fill="#3EEDBF"/>
<path d="M273.76 71.1621H265.721V72.6736H273.76V71.1621Z" fill="#3EEDBF"/>
<path d="M202.966 71.1621H194.927V72.6736H202.966V71.1621Z" fill="#3EEDBF"/>
<path d="M117.443 59.9907L125.247 57.7311C125.14 57.25 125.027 56.7615 124.981 56.25L118.116 58.2271L117.216 58.4867C117.269 58.9982 117.344 59.5021 117.443 59.9907Z" fill="#3EEDBF"/>
<path d="M164.569 84.4277H156.531V85.9392H164.569V84.4277Z" fill="#3EEDBF"/>
<path d="M304.848 45.1189V37.6606C304.355 37.6225 303.855 37.5996 303.342 37.5996V44.9815C303.864 44.9815 304.379 45.0427 304.848 45.1189Z" fill="#6424FF"/>
<path d="M303.348 44.9815V37.5996H303.211C302.758 37.5996 302.28 37.6225 301.849 37.6377V45.0731C302.28 45.0121 302.742 44.9738 303.211 44.9738H303.348V44.9815Z" fill="#3EEDBF"/>
<path d="M283.954 46.5673C284.453 46.5977 284.931 46.6054 285.46 46.6893V38.4448C284.975 38.3455 284.469 38.2845 283.954 38.2539V46.5673Z" fill="#6424FF"/>
<path d="M261.082 62.9591L257.29 61.7453L254.292 60.7988C254.127 61.3026 253.937 61.7682 253.726 62.211L260.567 64.379C260.765 63.9134 260.93 63.4554 261.082 62.9591Z" fill="#6424FF"/>
</g>
<defs>
<clipPath id="clip0_316_1812">
<rect width="354.475" height="105.682" fill="white" transform="translate(0.525146 0.0761719)"/>
</clipPath>
</defs>
</svg>
