<svg width="860" height="429" viewBox="0 0 860 429" fill="none" xmlns="http://www.w3.org/2000/svg">
<mask id="mask0_314_5810" style="mask-type:alpha" maskUnits="userSpaceOnUse" x="0" y="0" width="860" height="429">
<path fill-rule="evenodd" clip-rule="evenodd" d="M432.784 5C432.784 2.23857 435.023 0 437.784 0H439.216C441.978 0 444.216 2.23858 444.216 5V18.3092C444.357 18.2972 444.5 18.2912 444.644 18.2912H498.663C501.424 18.2912 503.663 20.5297 503.663 23.2912V34.2959H551.745C555.905 34.2959 558.246 39.0805 555.692 42.3649L542.534 59.2884C541.176 61.0351 541.128 63.4667 542.415 65.2663L556.309 84.6901C558.675 87.9991 556.31 92.599 552.242 92.599H502.947C500.185 92.599 497.947 90.3604 497.947 87.599V73.1646H444.644C444.5 73.1646 444.357 73.1585 444.216 73.1466V136.073C451.811 137.786 458.788 142.646 462.872 150.654L541.769 305.356L595.13 213.282C599.314 206.061 605.92 201.642 613.068 200.023V110.174C613.068 107.413 615.306 105.174 618.068 105.174H619.5C621.878 105.174 623.868 106.834 624.375 109.058C624.479 109.099 624.584 109.143 624.688 109.19L671.885 130.575C676.583 132.704 676.583 139.377 671.885 141.506L624.688 162.891C624.625 162.919 624.563 162.947 624.5 162.973V199.789C632.083 201.18 639.174 205.678 643.581 213.282L726.043 355.57L757.821 300.736C762.311 292.989 769.588 288.467 777.331 287.168V224.924C777.331 222.557 779.251 220.637 781.618 220.637C783.693 220.637 785.424 222.111 785.82 224.069C786.597 224.086 787.392 224.259 788.166 224.609L818.429 238.322C823.127 240.451 823.127 247.123 818.429 249.252L788.166 262.965C787.42 263.302 786.655 263.475 785.905 263.502V287.038C793.967 288.138 801.618 292.704 806.273 300.736L856.069 386.659C866.887 405.326 853.418 428.699 831.843 428.699H732.251C714.819 428.699 702.679 413.44 704.366 397.733C703.571 397.799 702.765 397.833 701.946 397.833H536.765C516.396 397.833 503.253 377.001 510.949 358.964H352.46C351.911 358.964 351.367 358.949 350.829 358.919C358.567 376.966 345.418 397.833 325.033 397.833H159.851C158.358 397.833 156.904 397.721 155.493 397.506C157.323 413.292 145.15 428.699 127.633 428.699H28.0419C6.46712 428.699 -7.00183 405.326 3.81618 386.659L53.6119 300.736C58.1015 292.989 65.3781 288.467 73.1219 287.168V224.924C73.1219 222.557 75.0412 220.637 77.4089 220.637C79.4837 220.637 81.2142 222.111 81.6105 224.069C82.3878 224.086 83.182 224.259 83.9561 224.609L114.219 238.322C118.917 240.451 118.917 247.123 114.219 249.252L83.9561 262.965C83.2103 263.302 82.4458 263.475 81.6959 263.502V287.038C89.7573 288.138 97.4083 292.704 102.063 300.736L134.826 357.268C135.076 356.774 135.343 356.282 135.626 355.793L218.216 213.282C222.401 206.061 229.006 201.642 236.155 200.023V110.174C236.155 107.413 238.393 105.174 241.155 105.174H242.587C244.964 105.174 246.954 106.834 247.462 109.058C247.566 109.099 247.671 109.143 247.775 109.19L294.971 130.575C299.67 132.704 299.67 139.377 294.971 141.506L247.775 162.891C247.712 162.919 247.649 162.947 247.587 162.973V199.789C255.17 201.18 262.261 205.678 266.668 213.282L327.507 318.261C327.51 318.255 327.513 318.249 327.516 318.243L412.985 150.654C417.274 142.245 424.751 137.308 432.784 135.84V5Z" fill="#C4C4C4"/>
</mask>
<g mask="url(#mask0_314_5810)">
<rect x="-135" y="-12" width="1214.08" height="441.274" fill="#29279B"/>
</g>
</svg>
