<svg width="812" height="350" viewBox="0 0 812 350" fill="none" xmlns="http://www.w3.org/2000/svg">
<path fill-rule="evenodd" clip-rule="evenodd" d="M404.784 5.5C404.784 2.73857 407.023 0.5 409.784 0.5H411.216C413.978 0.5 416.216 2.73858 416.216 5.5V18.8092C416.357 18.7972 416.5 18.7912 416.644 18.7912H470.663C473.424 18.7912 475.663 21.0297 475.663 23.7912V34.7959H523.745C527.905 34.7959 530.246 39.5805 527.692 42.8649L514.534 59.7884C513.176 61.5351 513.128 63.9667 514.415 65.7663L528.309 85.1901C530.675 88.4991 528.31 93.099 524.242 93.099H474.947C472.185 93.099 469.947 90.8604 469.947 88.099V73.6646H416.644C416.5 73.6646 416.357 73.6585 416.216 73.6466V136.573C423.811 138.286 430.788 143.146 434.872 151.154L513.769 305.856L567.13 213.782C571.314 206.561 577.92 202.142 585.068 200.523V110.674C585.068 107.913 587.306 105.674 590.068 105.674H591.5C593.878 105.674 595.868 107.334 596.375 109.558C596.479 109.599 596.584 109.643 596.688 109.69L643.885 131.075C648.583 133.204 648.583 139.877 643.885 142.006L596.688 163.391C596.625 163.419 596.563 163.447 596.5 163.473V200.289C604.083 201.68 611.174 206.178 615.581 213.782L699 349L729.821 301.236C734.311 293.489 741.588 288.967 749.331 287.668V225.424C749.331 223.057 751.251 221.137 753.618 221.137C755.693 221.137 757.424 222.611 757.82 224.569C758.597 224.586 759.392 224.759 760.166 225.109L790.429 238.822C795.127 240.951 795.127 247.623 790.429 249.752L760.166 263.465C759.42 263.802 758.655 263.975 757.905 264.002V287.538C765.967 288.638 773.618 293.204 778.273 301.236L812 349C785 349 799.848 349 778.273 349H741C723.568 349 708.5 349 682.5 349C681.705 349.066 682.5 349 659 349C659 349 542.869 349 522.5 349C502.131 349 514.034 349 484 349H434.5C425.5 349 319.5 349 319.5 349C275.54 349 283.5 348 259.5 349H182C137 349 127.911 349.215 126.5 349C101.744 349 73.4731 349 55.9561 349H74.063C52.4882 349 39 349 0.5 349L25.6119 301.236C30.1015 293.489 37.3781 288.967 45.1219 287.668V225.424C45.1219 223.057 47.0412 221.137 49.4089 221.137C51.4837 221.137 53.2142 222.611 53.6105 224.569C54.3878 224.586 55.182 224.759 55.9561 225.109L86.219 238.822C90.917 240.951 90.917 247.623 86.219 249.752L55.9561 263.465C55.2103 263.802 54.4458 263.975 53.6959 264.002V287.538C61.7573 288.638 69.4083 293.204 74.063 301.236L101.744 349C101.461 349.489 96.663 340.232 101.744 349L190.216 213.782C194.401 206.561 201.006 202.142 208.155 200.523V110.674C208.155 107.913 210.393 105.674 213.155 105.674H214.587C216.964 105.674 218.954 107.334 219.462 109.558C219.566 109.599 219.671 109.643 219.775 109.69L266.971 131.075C271.67 133.204 271.67 139.877 266.971 142.006L219.775 163.391C219.712 163.419 219.649 163.447 219.587 163.473V200.289C227.17 201.68 234.261 206.178 238.668 213.782L299.507 318.761C299.51 318.755 299.513 318.749 299.516 318.743L384.985 151.154C389.274 142.745 396.751 137.808 404.784 136.34V5.5Z" fill="#29279B"/>
</svg>
