<svg width="17" height="16" viewBox="0 0 17 16" fill="none" xmlns="http://www.w3.org/2000/svg">
<path d="M14.3841 0.116455H1.75274C0.801794 0.116455 0.0302734 0.866544 0.0302734 1.79107V14.0716C0.0302734 14.9961 0.801794 15.7462 1.75274 15.7462H14.3841C15.3351 15.7462 16.1066 14.9961 16.1066 14.0716V1.79107C16.1066 0.866544 15.3351 0.116455 14.3841 0.116455ZM12.6294 5.65665C12.6366 5.75434 12.6366 5.85551 12.6366 5.9532C12.6366 8.97798 10.2682 12.4633 5.94048 12.4633C4.60557 12.4633 3.36755 12.0865 2.32689 11.4376C2.51708 11.4585 2.70009 11.4655 2.89387 11.4655C3.99553 11.4655 5.00748 11.1026 5.81488 10.4886C4.7814 10.4677 3.913 9.80831 3.61515 8.90122C3.97759 8.95356 4.30414 8.95356 4.67734 8.85936C3.6008 8.64654 2.79339 7.7255 2.79339 6.61258V6.58467C3.10559 6.75562 3.47161 6.86028 3.85558 6.87424C3.53277 6.66548 3.26814 6.38227 3.0853 6.04989C2.90247 5.71751 2.80711 5.34629 2.80775 4.96936C2.80775 4.54373 2.92258 4.15298 3.12712 3.81457C4.2862 5.20311 6.0266 6.11019 7.97873 6.20788C7.645 4.65537 8.83996 3.39592 10.2753 3.39592C10.9536 3.39592 11.5636 3.67153 11.9942 4.11809C12.5253 4.02041 13.0349 3.82853 13.487 3.56687C13.3112 4.09716 12.9416 4.54373 12.4535 4.82632C12.9272 4.77748 13.3866 4.64839 13.81 4.47046C13.4906 4.92749 13.0887 5.33219 12.6294 5.65665Z" fill="white"/>
</svg>
