<svg width="16" height="16" viewBox="0 0 16 16" fill="none" xmlns="http://www.w3.org/2000/svg">
<path d="M3.3097 0.19458C1.64214 0.19458 0.277344 1.55935 0.277344 3.22694V12.6369C0.277344 14.3044 1.64211 15.6687 3.3097 15.6687H12.7197C14.3872 15.6687 15.7515 14.3044 15.7515 12.6369V3.22694C15.7515 1.55938 14.3872 0.19458 12.7197 0.19458H3.3097ZM4.07239 2.74813C4.87195 2.74813 5.36444 3.27302 5.37964 3.96299C5.37964 4.63773 4.87192 5.17738 4.05692 5.17738H4.04192C3.25758 5.17738 2.75063 4.63776 2.75063 3.96299C2.75063 3.27304 3.27292 2.74813 4.07237 2.74813H4.07239ZM10.9626 5.97296C12.5004 5.97296 13.6531 6.97801 13.6531 9.13781V13.1698H11.3162V9.40814C11.3162 8.46288 10.978 7.81797 10.1323 7.81797C9.48665 7.81797 9.10182 8.25264 8.93286 8.67255C8.87114 8.82278 8.85597 9.03259 8.85597 9.24274V13.1698H6.51907C6.51907 13.1698 6.54974 6.79765 6.51907 6.13786H8.85645V7.13365C9.167 6.65452 9.72248 5.97294 10.9626 5.97294V5.97296ZM2.88847 6.13837H5.22536V13.1698H2.88847V6.13837Z" fill="white"/>
</svg>
