<svg width="217" height="31" viewBox="0 0 217 31" fill="none" xmlns="http://www.w3.org/2000/svg">
<path d="M12.6245 30.32C10.7685 30.32 9.10445 30.032 7.63245 29.456C6.16046 28.88 4.90179 28.0693 3.85646 27.024C2.83246 25.9787 2.05379 24.7413 1.52045 23.312C0.987122 21.8827 0.720455 20.336 0.720455 18.672C0.720455 16.9867 1.00845 15.44 1.58446 14.032C2.18179 12.6027 3.03512 11.3653 4.14445 10.32C5.25379 9.27467 6.55512 8.464 8.04846 7.888C9.56312 7.312 11.2378 7.024 13.0725 7.024C14.3311 7.024 15.5151 7.184 16.6245 7.504C17.7551 7.824 18.7685 8.26133 19.6645 8.816C20.5605 9.37067 21.3285 9.98933 21.9685 10.672L18.1925 14.704C17.7231 14.256 17.2218 13.872 16.6885 13.552C16.1765 13.232 15.6111 12.976 14.9925 12.784C14.3951 12.592 13.7231 12.496 12.9765 12.496C12.1445 12.496 11.3765 12.656 10.6725 12.976C9.98979 13.2747 9.39246 13.7013 8.88046 14.256C8.36846 14.7893 7.96312 15.44 7.66446 16.208C7.38712 16.9547 7.24846 17.776 7.24846 18.672C7.24846 19.5467 7.39779 20.368 7.69646 21.136C7.99512 21.8827 8.41112 22.5333 8.94446 23.088C9.47779 23.6427 10.1071 24.08 10.8325 24.4C11.5791 24.6987 12.3791 24.848 13.2325 24.848C13.8298 24.848 14.3845 24.752 14.8965 24.56C15.4085 24.368 15.8458 24.112 16.2085 23.792C16.5925 23.4507 16.8911 23.056 17.1045 22.608C17.3178 22.1387 17.4245 21.6373 17.4245 21.104V20.208L18.2565 21.552H12.3685V16.944H23.1845C23.2058 17.1787 23.2271 17.5413 23.2485 18.032C23.2911 18.5013 23.3125 18.9707 23.3125 19.44C23.3338 19.9093 23.3445 20.24 23.3445 20.432C23.3445 21.8613 23.0778 23.184 22.5445 24.4C22.0111 25.616 21.2645 26.6613 20.3045 27.536C19.3445 28.4107 18.2138 29.0933 16.9125 29.584C15.6111 30.0747 14.1818 30.32 12.6245 30.32ZM34.5912 30.32C32.6499 30.32 30.9752 29.9467 29.5672 29.2C28.1592 28.432 27.0712 27.3867 26.3032 26.064C25.5352 24.72 25.1512 23.1947 25.1512 21.488C25.1512 20.208 25.3645 19.024 25.7912 17.936C26.2179 16.848 26.8152 15.9093 27.5832 15.12C28.3512 14.3093 29.2579 13.6907 30.3032 13.264C31.3699 12.816 32.5325 12.592 33.7912 12.592C35.0285 12.592 36.1485 12.8053 37.1512 13.232C38.1752 13.6587 39.0499 14.2667 39.7752 15.056C40.5219 15.8453 41.0872 16.7733 41.4712 17.84C41.8765 18.9067 42.0579 20.08 42.0152 21.36L41.9832 22.704H28.5432L27.8072 19.728H37.2152L36.6392 20.368V19.76C36.6392 19.2907 36.5112 18.8853 36.2552 18.544C36.0205 18.1813 35.7005 17.904 35.2952 17.712C34.8899 17.52 34.4312 17.424 33.9192 17.424C33.1939 17.424 32.5859 17.5733 32.0952 17.872C31.6259 18.1493 31.2632 18.5547 31.0072 19.088C30.7512 19.6213 30.6232 20.2613 30.6232 21.008C30.6232 21.8613 30.7939 22.5973 31.1352 23.216C31.4979 23.8347 32.0205 24.3147 32.7032 24.656C33.4072 24.9973 34.2605 25.168 35.2632 25.168C35.9245 25.168 36.5005 25.0827 36.9912 24.912C37.5032 24.7413 38.0472 24.4427 38.6232 24.016L41.3752 27.888C40.6285 28.4853 39.8712 28.9653 39.1032 29.328C38.3565 29.6693 37.6099 29.9147 36.8632 30.064C36.1165 30.2347 35.3592 30.32 34.5912 30.32ZM44.6172 30V12.944H50.1852L50.4412 16.4L49.2252 16.784C49.4385 15.9733 49.8545 15.2587 50.4732 14.64C51.0919 14 51.8279 13.4987 52.6812 13.136C53.5345 12.7733 54.4305 12.592 55.3692 12.592C56.6492 12.592 57.7265 12.8587 58.6012 13.392C59.4972 13.904 60.1692 14.6827 60.6172 15.728C61.0865 16.752 61.3212 18.0107 61.3212 19.504V30H55.3692V19.984C55.3692 19.4293 55.2839 18.9707 55.1132 18.608C54.9425 18.224 54.6865 17.936 54.3452 17.744C54.0039 17.552 53.5985 17.4667 53.1292 17.488C52.7665 17.488 52.4252 17.5413 52.1052 17.648C51.8065 17.7547 51.5399 17.9253 51.3052 18.16C51.0705 18.3733 50.8892 18.6187 50.7612 18.896C50.6545 19.1733 50.6012 19.4827 50.6012 19.824V30H47.6252C46.8999 30 46.2812 30 45.7692 30C45.2785 30 44.8945 30 44.6172 30ZM65.3035 30V24.582L80.6755 4.254L83.9935 8.118H66.3955V0.599998H88.9915V5.976L73.7035 26.346L70.3435 22.902H89.4535V30H65.3035ZM94.8056 30V8.624H100.758V30H94.8056ZM91.9896 18V12.944H103.734V18H91.9896ZM114.222 30.32C112.281 30.32 110.606 29.9467 109.198 29.2C107.79 28.432 106.702 27.3867 105.934 26.064C105.166 24.72 104.782 23.1947 104.782 21.488C104.782 20.208 104.995 19.024 105.422 17.936C105.849 16.848 106.446 15.9093 107.214 15.12C107.982 14.3093 108.889 13.6907 109.934 13.264C111.001 12.816 112.163 12.592 113.422 12.592C114.659 12.592 115.779 12.8053 116.782 13.232C117.806 13.6587 118.681 14.2667 119.406 15.056C120.153 15.8453 120.718 16.7733 121.102 17.84C121.507 18.9067 121.689 20.08 121.646 21.36L121.614 22.704H108.174L107.438 19.728H116.846L116.27 20.368V19.76C116.27 19.2907 116.142 18.8853 115.886 18.544C115.651 18.1813 115.331 17.904 114.926 17.712C114.521 17.52 114.062 17.424 113.55 17.424C112.825 17.424 112.217 17.5733 111.726 17.872C111.257 18.1493 110.894 18.5547 110.638 19.088C110.382 19.6213 110.254 20.2613 110.254 21.008C110.254 21.8613 110.425 22.5973 110.766 23.216C111.129 23.8347 111.651 24.3147 112.334 24.656C113.038 24.9973 113.891 25.168 114.894 25.168C115.555 25.168 116.131 25.0827 116.622 24.912C117.134 24.7413 117.678 24.4427 118.254 24.016L121.006 27.888C120.259 28.4853 119.502 28.9653 118.734 29.328C117.987 29.6693 117.241 29.9147 116.494 30.064C115.747 30.2347 114.99 30.32 114.222 30.32ZM131.864 30.32C130.179 30.32 128.664 29.936 127.32 29.168C125.997 28.4 124.952 27.3547 124.184 26.032C123.416 24.688 123.032 23.1627 123.032 21.456C123.032 19.7493 123.416 18.2347 124.184 16.912C124.952 15.568 125.997 14.512 127.32 13.744C128.664 12.976 130.179 12.592 131.864 12.592C133.4 12.592 134.808 12.8373 136.088 13.328C137.389 13.8187 138.424 14.5227 139.192 15.44L135.96 19.28C135.725 18.9813 135.427 18.7147 135.064 18.48C134.701 18.224 134.296 18.032 133.848 17.904C133.421 17.7547 132.941 17.68 132.408 17.68C131.704 17.68 131.085 17.84 130.552 18.16C130.019 18.48 129.603 18.928 129.304 19.504C129.027 20.0587 128.888 20.6987 128.888 21.424C128.888 22.1493 129.027 22.7893 129.304 23.344C129.581 23.8987 129.987 24.3467 130.52 24.688C131.075 25.0293 131.704 25.2 132.408 25.2C132.941 25.2 133.421 25.136 133.848 25.008C134.296 24.88 134.691 24.6987 135.032 24.464C135.395 24.2293 135.704 23.952 135.96 23.632L139.192 27.504C138.403 28.4 137.357 29.0933 136.056 29.584C134.776 30.0747 133.379 30.32 131.864 30.32ZM141.342 30V6.32H147.166V16.4L145.95 16.784C146.163 15.9733 146.579 15.2587 147.198 14.64C147.816 14 148.552 13.4987 149.406 13.136C150.259 12.7733 151.155 12.592 152.094 12.592C153.374 12.592 154.451 12.8587 155.326 13.392C156.222 13.904 156.894 14.6827 157.342 15.728C157.811 16.752 158.046 18.0107 158.046 19.504V30H152.094V19.984C152.094 19.4293 152.008 18.9707 151.838 18.608C151.667 18.224 151.411 17.936 151.07 17.744C150.728 17.552 150.323 17.4667 149.854 17.488C149.491 17.488 149.15 17.5413 148.83 17.648C148.531 17.7547 148.264 17.9253 148.03 18.16C147.795 18.3733 147.614 18.6187 147.486 18.896C147.379 19.1733 147.326 19.4827 147.326 19.824V30H144.35C143.624 30 143.006 30 142.494 30C142.003 30 141.619 30 141.342 30ZM161.94 30V12.944H167.892V30H161.94ZM164.916 9.712C163.828 9.712 162.985 9.46667 162.388 8.976C161.791 8.464 161.492 7.74933 161.492 6.832C161.492 5.97867 161.791 5.28533 162.388 4.752C163.007 4.19733 163.849 3.92 164.916 3.92C165.983 3.92 166.815 4.176 167.412 4.688C168.031 5.17867 168.34 5.89333 168.34 6.832C168.34 7.68533 168.031 8.37867 167.412 8.912C166.793 9.44533 165.961 9.712 164.916 9.712ZM180.285 30.32C178.343 30.32 176.669 29.9467 175.261 29.2C173.853 28.432 172.765 27.3867 171.997 26.064C171.229 24.72 170.845 23.1947 170.845 21.488C170.845 20.208 171.058 19.024 171.485 17.936C171.911 16.848 172.509 15.9093 173.277 15.12C174.045 14.3093 174.951 13.6907 175.997 13.264C177.063 12.816 178.226 12.592 179.485 12.592C180.722 12.592 181.842 12.8053 182.845 13.232C183.869 13.6587 184.743 14.2667 185.469 15.056C186.215 15.8453 186.781 16.7733 187.165 17.84C187.57 18.9067 187.751 20.08 187.709 21.36L187.677 22.704H174.237L173.501 19.728H182.909L182.333 20.368V19.76C182.333 19.2907 182.205 18.8853 181.949 18.544C181.714 18.1813 181.394 17.904 180.989 17.712C180.583 17.52 180.125 17.424 179.613 17.424C178.887 17.424 178.279 17.5733 177.789 17.872C177.319 18.1493 176.957 18.5547 176.701 19.088C176.445 19.6213 176.317 20.2613 176.317 21.008C176.317 21.8613 176.487 22.5973 176.829 23.216C177.191 23.8347 177.714 24.3147 178.397 24.656C179.101 24.9973 179.954 25.168 180.957 25.168C181.618 25.168 182.194 25.0827 182.685 24.912C183.197 24.7413 183.741 24.4427 184.317 24.016L187.069 27.888C186.322 28.4853 185.565 28.9653 184.797 29.328C184.05 29.6693 183.303 29.9147 182.557 30.064C181.81 30.2347 181.053 30.32 180.285 30.32ZM196.135 30.32C194.364 30.32 192.807 30.0427 191.463 29.488C190.119 28.9333 189.073 28.2187 188.327 27.344L191.815 24.336C192.497 24.9547 193.265 25.4133 194.119 25.712C194.993 26.0107 195.761 26.16 196.423 26.16C196.657 26.16 196.871 26.1387 197.063 26.096C197.255 26.0533 197.404 25.9893 197.511 25.904C197.639 25.7973 197.735 25.6907 197.799 25.584C197.884 25.456 197.927 25.3173 197.927 25.168C197.927 24.8053 197.745 24.528 197.383 24.336C197.191 24.2507 196.871 24.144 196.423 24.016C195.996 23.8667 195.42 23.7067 194.695 23.536C193.799 23.3013 192.999 23.024 192.295 22.704C191.591 22.3627 190.993 21.968 190.503 21.52C190.033 21.072 189.66 20.56 189.383 19.984C189.127 19.3867 188.999 18.736 188.999 18.032C188.999 17.1787 189.191 16.4213 189.575 15.76C189.959 15.0987 190.492 14.5333 191.175 14.064C191.857 13.5733 192.625 13.2107 193.479 12.976C194.332 12.72 195.207 12.592 196.103 12.592C197.105 12.592 198.044 12.6987 198.919 12.912C199.815 13.104 200.647 13.392 201.415 13.776C202.204 14.1387 202.908 14.5867 203.527 15.12L200.455 18.512C200.092 18.192 199.665 17.8933 199.175 17.616C198.705 17.3387 198.215 17.1147 197.703 16.944C197.191 16.752 196.711 16.656 196.263 16.656C195.985 16.656 195.751 16.6773 195.559 16.72C195.367 16.7627 195.207 16.8267 195.079 16.912C194.951 16.9973 194.855 17.104 194.791 17.232C194.727 17.36 194.695 17.4987 194.695 17.648C194.695 17.84 194.748 18.0213 194.855 18.192C194.961 18.3627 195.132 18.5013 195.367 18.608C195.559 18.7147 195.879 18.8533 196.327 19.024C196.796 19.1733 197.468 19.3653 198.343 19.6C199.324 19.8773 200.177 20.1973 200.903 20.56C201.628 20.9227 202.215 21.3387 202.663 21.808C202.983 22.1707 203.228 22.576 203.399 23.024C203.569 23.4507 203.655 23.9307 203.655 24.464C203.655 25.5947 203.324 26.608 202.663 27.504C202.023 28.3787 201.137 29.072 200.007 29.584C198.876 30.0747 197.585 30.32 196.135 30.32ZM211.463 30.638C209.723 30.638 208.37 30.1547 207.403 29.188C206.475 28.2213 206.011 26.8487 206.011 25.07C206.011 23.446 206.514 22.112 207.519 21.068C208.524 20.024 209.839 19.502 211.463 19.502C213.164 19.502 214.498 19.9853 215.465 20.952C216.432 21.9187 216.915 23.2913 216.915 25.07C216.915 26.694 216.412 28.028 215.407 29.072C214.402 30.116 213.087 30.638 211.463 30.638Z" fill="white"/>
</svg>
