<svg width="1440" height="799" viewBox="0 0 1440 799" fill="none" xmlns="http://www.w3.org/2000/svg">
<g clip-path="url(#clip0_459_2833)">
<rect width="1440" height="799" fill="white"/>
<ellipse cx="1952.16" cy="380" rx="634.318" ry="600" stroke="#B6B6ED" stroke-width="0.2"/>
<ellipse cx="1698.04" cy="380" rx="740.038" ry="700" stroke="#B6B6ED" stroke-width="0.2"/>
<ellipse cx="1499.76" cy="380" rx="845.758" ry="800" stroke="#B6B6ED" stroke-width="0.2"/>
<ellipse cx="1272.76" cy="380" rx="845.758" ry="800" stroke="#B6B6ED" stroke-width="0.2"/>
<ellipse cx="1047.76" cy="380" rx="845.758" ry="800" stroke="#B6B6ED" stroke-width="0.2"/>
<ellipse cx="907.758" cy="380" rx="845.758" ry="800" stroke="#B6B6ED" stroke-width="0.2"/>
<path d="M843.467 317V322.479M843.467 326.132V331.611M850.773 324.306H845.294M841.641 324.306H836.162" stroke="#5D5CD6" stroke-width="0.5" stroke-linecap="round" stroke-linejoin="round"/>
<path d="M953.067 190.611V196.091M953.067 199.744V205.223M960.373 197.917H954.893M951.241 197.917H945.761" stroke="#5D5CD6" stroke-width="0.5" stroke-linecap="round" stroke-linejoin="round"/>
<path d="M1010.3 262.695V268.175M1010.3 271.827V277.307M1017.84 270.001H1012.18M1008.41 270.001H1002.75" stroke="#5D5CD6" stroke-width="0.5" stroke-linecap="round" stroke-linejoin="round"/>
<path d="M901.683 356.209V361.871M901.683 365.646V371.308M909.233 363.758H903.571M899.796 363.758H894.134" stroke="#5D5CD6" stroke-width="0.5" stroke-linecap="round" stroke-linejoin="round"/>
<path d="M1017.6 348.902V354.382M1017.6 358.035V363.514M1025.15 356.208H1019.49M1015.71 356.208H1010.05" stroke="#5D5CD6" stroke-width="0.5" stroke-linecap="round" stroke-linejoin="round"/>
<path d="M897.467 150V155.479M897.467 159.132V164.611M904.773 157.306H899.294M895.641 157.306H890.162" stroke="#5D5CD6" stroke-width="0.5" stroke-linecap="round" stroke-linejoin="round"/>
<path d="M774.467 283V288.479M774.467 292.132V297.611M781.773 290.306H776.294M772.641 290.306H767.162" stroke="#5D5CD6" stroke-width="0.5" stroke-linecap="round" stroke-linejoin="round"/>
<path d="M836.175 190.611V196.091M836.175 199.744V205.223M843.481 197.917H838.002M834.349 197.917H828.869" stroke="#5D5CD6" stroke-width="0.5" stroke-linecap="round" stroke-linejoin="round"/>
<path d="M1048.04 176V181.479M1048.04 185.132V190.611M1055.35 183.306H1049.87M1046.22 183.306H1040.74" stroke="#5D5CD6" stroke-width="0.5" stroke-linecap="round" stroke-linejoin="round"/>
<path d="M1089.44 289.969V295.448M1089.44 299.101V304.58M1096.75 297.274H1091.27M1087.61 297.274H1082.14" stroke="#5D5CD6" stroke-width="0.5" stroke-linecap="round" stroke-linejoin="round"/>
<path d="M828.869 404.914V410.576M828.869 414.351V420.013M836.175 412.463H830.696M827.043 412.463H821.564" stroke="#5D5CD6" stroke-width="0.5" stroke-linecap="round" stroke-linejoin="round"/>
<path d="M947.176 430.727V436.389M947.176 440.163V445.825M954.725 438.276H949.063M945.289 438.276H939.627" stroke="#5D5CD6" stroke-width="0.5" stroke-linecap="round" stroke-linejoin="round"/>
<path d="M1082.28 558.265L1087.22 560.644M1090.51 562.23L1095.44 564.609M1092.04 554.856L1089.66 559.792M1088.07 563.082L1085.69 568.018" stroke="#5D5CD6" stroke-width="0.5" stroke-linecap="round" stroke-linejoin="round"/>
<path d="M1292.44 415.801L1297.38 418.18M1300.67 419.767L1305.6 422.146M1302.3 412.173L1299.84 417.273M1298.2 420.674L1295.74 425.774" stroke="#5D5CD6" stroke-width="0.5" stroke-linecap="round" stroke-linejoin="round"/>
<path d="M1199.73 598.391L1204.83 600.85M1208.23 602.489L1213.33 604.947M1209.81 594.869L1207.35 599.969M1205.71 603.369L1203.25 608.47" stroke="#5D5CD6" stroke-width="0.5" stroke-linecap="round" stroke-linejoin="round"/>
<path d="M1299.44 491.801L1304.38 494.18M1307.67 495.767L1312.6 498.146M1309.3 488.173L1306.84 493.273M1305.2 496.674L1302.74 501.774" stroke="#5D5CD6" stroke-width="0.5" stroke-linecap="round" stroke-linejoin="round"/>
<path d="M1115.33 481.581L1120.27 483.96M1123.56 485.547L1128.5 487.926M1125.09 478.172L1122.71 483.108M1121.12 486.399L1118.74 491.334" stroke="#5D5CD6" stroke-width="0.5" stroke-linecap="round" stroke-linejoin="round"/>
<path d="M1122.82 650.259L1127.76 652.638M1131.05 654.224L1135.99 656.604M1132.58 646.85L1130.2 651.786M1128.61 655.076L1126.23 660.012" stroke="#5D5CD6" stroke-width="0.5" stroke-linecap="round" stroke-linejoin="round"/>
<path d="M1022.12 585.493L1027.05 587.872M1030.34 589.459L1035.28 591.838M1031.87 582.084L1029.49 587.02M1027.9 590.311L1025.53 595.247" stroke="#5D5CD6" stroke-width="0.5" stroke-linecap="round" stroke-linejoin="round"/>
<path d="M1169.33 537.581L1174.27 539.96M1177.56 541.547L1182.5 543.926M1179.09 534.172L1176.71 539.108M1175.12 542.399L1172.74 547.334" stroke="#5D5CD6" stroke-width="0.5" stroke-linecap="round" stroke-linejoin="round"/>
<path d="M1221.59 400.495L1226.53 402.874M1229.82 404.461L1234.76 406.84M1231.35 397.086L1228.97 402.022M1227.38 405.313L1225 410.249" stroke="#5D5CD6" stroke-width="0.5" stroke-linecap="round" stroke-linejoin="round"/>
<path d="M1221.44 491.801L1226.54 494.26M1229.94 495.899L1235.04 498.357M1231.52 488.279L1229.06 493.379M1227.42 496.779L1224.96 501.88" stroke="#5D5CD6" stroke-width="0.5" stroke-linecap="round" stroke-linejoin="round"/>
<path d="M895.767 559.466L900.703 561.845M903.993 563.431L908.929 565.811M905.52 556.057L903.141 560.993M901.555 564.283L899.176 569.219" stroke="#5D5CD6" stroke-width="0.5" stroke-linecap="round" stroke-linejoin="round"/>
<path d="M765.44 438.799L770.375 441.178M773.666 442.765L778.602 445.144M775.299 435.171L772.84 440.271M771.201 443.672L768.743 448.772" stroke="#5D5CD6" stroke-width="0.5" stroke-linecap="round" stroke-linejoin="round"/>
<path d="M872.677 613.62L877.777 616.078M881.177 617.717L886.278 620.176M882.755 610.097L880.297 615.198M878.658 618.598L876.199 623.698" stroke="#5D5CD6" stroke-width="0.5" stroke-linecap="round" stroke-linejoin="round"/>
<path d="M865.44 492.799L870.375 495.178M873.666 496.765L878.602 499.144M875.299 489.171L872.84 494.271M871.201 497.672L868.743 502.772" stroke="#5D5CD6" stroke-width="0.5" stroke-linecap="round" stroke-linejoin="round"/>
<path d="M810.988 543.062L815.924 545.441M819.215 547.027L824.15 549.406M820.742 539.653L818.362 544.589M816.776 547.879L814.397 552.815" stroke="#5D5CD6" stroke-width="0.5" stroke-linecap="round" stroke-linejoin="round"/>
<path d="M972.585 577.975L977.685 580.434M981.085 582.073L986.185 584.531M982.663 574.453L980.205 579.553M978.565 582.953L976.107 588.053" stroke="#5D5CD6" stroke-width="0.5" stroke-linecap="round" stroke-linejoin="round"/>
<path d="M1210.36 276.284L1215.29 278.663M1218.58 280.25L1223.52 282.629M1220.11 272.876L1217.73 277.811M1216.14 281.102L1213.76 286.038" stroke="#5D5CD6" stroke-width="0.5" stroke-linecap="round" stroke-linejoin="round"/>
<path d="M1150.19 191.995L1155.13 194.374M1158.42 195.96L1163.35 198.339M1160.05 188.366L1157.59 193.467M1155.95 196.867L1153.49 201.967" stroke="#5D5CD6" stroke-width="0.5" stroke-linecap="round" stroke-linejoin="round"/>
<path d="M1187.27 330.438L1192.37 332.896M1195.77 334.535L1200.87 336.994M1197.34 326.916L1194.89 332.016M1193.25 335.416L1190.79 340.516" stroke="#5D5CD6" stroke-width="0.5" stroke-linecap="round" stroke-linejoin="round"/>
<path d="M1231.02 222.846L1235.96 225.225M1239.25 226.812L1244.18 229.191M1240.88 219.218L1238.42 224.318M1236.78 227.719L1234.32 232.819" stroke="#5D5CD6" stroke-width="0.5" stroke-linecap="round" stroke-linejoin="round"/>
<path d="M1135.58 309.88L1140.51 312.259M1143.8 313.845L1148.74 316.225M1145.33 306.471L1142.95 311.407M1141.37 314.698L1138.99 319.633" stroke="#5D5CD6" stroke-width="0.5" stroke-linecap="round" stroke-linejoin="round"/>
<path d="M1287.17 294.791L1292.27 297.25M1295.67 298.889L1300.77 301.348M1297.25 291.269L1294.79 296.369M1293.15 299.77L1290.7 304.87" stroke="#5D5CD6" stroke-width="0.5" stroke-linecap="round" stroke-linejoin="round"/>
</g>
<defs>
<clipPath id="clip0_459_2833">
<rect width="1440" height="799" fill="white"/>
</clipPath>
</defs>
</svg>
