<svg width="1440" height="900" viewBox="0 0 1440 900" fill="none" xmlns="http://www.w3.org/2000/svg">
<g clip-path="url(#clip0_445_1783)">
<rect width="1440" height="900" fill="url(#paint0_linear_445_1783)"/>
<circle cx="1500" cy="450" r="600" stroke="#B6B6ED" stroke-opacity="0.7" stroke-width="0.45"/>
<circle cx="1440" cy="450" r="700" stroke="#B6B6ED" stroke-opacity="0.7" stroke-width="0.45"/>
<circle cx="1379" cy="450" r="800" stroke="#B6B6ED" stroke-opacity="0.7" stroke-width="0.45"/>
<circle cx="1221" cy="450" r="800" stroke="#B6B6ED" stroke-opacity="0.7" stroke-width="0.45"/>
<circle cx="1061" cy="450" r="800" stroke="#B6B6ED" stroke-opacity="0.7" stroke-width="0.45"/>
<circle cx="881" cy="450" r="800" stroke="#B6B6ED" stroke-opacity="0.7" stroke-width="0.45"/>
<path d="M147.388 188.004L147.401 187.228L147.388 188.004ZM214.328 236.268C214.752 236.33 215.146 236.037 215.208 235.612L216.218 228.701C216.28 228.277 215.987 227.883 215.563 227.821C215.138 227.759 214.744 228.052 214.682 228.476L213.784 234.62L207.641 233.722C207.217 233.66 206.823 233.954 206.761 234.378C206.699 234.802 206.992 235.196 207.416 235.258L214.328 236.268ZM88.9299 216.097C90.3873 216.623 91.7909 217.012 93.1464 217.276L93.4435 215.752C92.1714 215.504 90.8444 215.137 89.4561 214.637L88.9299 216.097ZM101.885 217.244C104.787 216.613 107.424 215.379 109.889 213.779L109.044 212.477C106.698 214 104.234 215.145 101.555 215.728L101.885 217.244ZM116.597 208.368C118.639 206.45 120.639 204.385 122.643 202.362L121.54 201.269C119.518 203.31 117.55 205.343 115.535 207.236L116.597 208.368ZM128.753 196.556C130.903 194.71 133.14 193.059 135.54 191.759L134.801 190.394C132.274 191.763 129.946 193.486 127.742 195.379L128.753 196.556ZM143.275 189.067C144.583 188.856 145.947 188.755 147.374 188.78L147.401 187.228C145.882 187.201 144.427 187.309 143.029 187.534L143.275 189.067ZM147.374 188.78C148.738 188.804 150.11 188.913 151.486 189.102L151.696 187.564C150.263 187.367 148.83 187.253 147.401 187.228L147.374 188.78ZM159.543 191.045C162.115 191.917 164.679 193.013 167.216 194.287L167.913 192.9C165.321 191.598 162.69 190.473 160.042 189.575L159.543 191.045ZM174.48 198.436C176.824 199.931 179.123 201.543 181.359 203.23L182.294 201.99C180.029 200.282 177.697 198.647 175.315 197.128L174.48 198.436ZM187.897 208.5C190.07 210.363 192.156 212.259 194.133 214.14L195.203 213.016C193.208 211.118 191.103 209.204 188.907 207.322L187.897 208.5ZM200.098 220.08C202.204 222.272 204.117 224.365 205.802 226.27L206.965 225.241C205.268 223.322 203.34 221.214 201.217 219.005L200.098 220.08ZM211.24 232.684C212.075 233.714 212.721 234.536 213.157 235.1C213.375 235.381 213.541 235.598 213.652 235.744C213.708 235.817 213.749 235.873 213.777 235.91C213.791 235.928 213.801 235.942 213.808 235.951C213.812 235.955 213.814 235.959 213.816 235.961C213.816 235.962 213.817 235.963 213.817 235.963C213.818 235.964 213.818 235.964 213.818 235.964C213.818 235.964 213.818 235.964 213.818 235.964C213.818 235.964 213.818 235.964 213.818 235.964C213.818 235.964 213.818 235.964 214.44 235.5C215.063 235.037 215.063 235.037 215.063 235.036C215.063 235.036 215.063 235.036 215.062 235.036C215.062 235.036 215.062 235.036 215.062 235.036C215.062 235.036 215.062 235.036 215.062 235.035C215.061 235.035 215.06 235.034 215.059 235.032C215.057 235.03 215.055 235.026 215.051 235.021C215.043 235.011 215.032 234.996 215.018 234.977C214.989 234.938 214.945 234.881 214.888 234.806C214.775 234.656 214.606 234.435 214.384 234.149C213.942 233.577 213.289 232.747 212.446 231.707L211.24 232.684Z" fill="#5D5CD6"/>
</g>
<defs>
<linearGradient id="paint0_linear_445_1783" x1="720" y1="125.5" x2="720" y2="885.5" gradientUnits="userSpaceOnUse">
<stop stop-color="#F7F7FD"/>
<stop offset="1" stop-color="white"/>
</linearGradient>
<clipPath id="clip0_445_1783">
<rect width="1440" height="900" fill="white"/>
</clipPath>
</defs>
</svg>
