<svg width="76" height="76" viewBox="0 0 76 76" fill="none" xmlns="http://www.w3.org/2000/svg">
<rect width="76" height="76" rx="16" fill="white"/>
<g clip-path="url(#clip0_412_2603)">
<path d="M25.7298 22.0781C25.7298 24.9146 23.4476 27.2188 20.6381 27.2188C17.8286 27.2188 15.5464 24.9146 15.5464 22.0781C15.5464 19.2416 17.8286 16.9375 20.6381 16.9375C23.4476 16.9375 25.7298 19.2416 25.7298 22.0781ZM14.819 36.5545C13.9098 37.5826 13.3643 38.9504 13.3643 40.4375C13.3643 41.9246 13.9098 43.2924 14.819 44.3205V36.5545ZM27.9483 32.0289C25.2479 34.4432 23.5476 37.9773 23.5476 41.9063C23.5476 45.0549 24.6387 47.9465 26.4571 50.2139V52.1875C26.4571 53.8123 25.1569 55.125 23.5476 55.125H17.7286C16.1192 55.125 14.819 53.8123 14.819 52.1875V49.7273C11.3822 48.075 9 44.5408 9 40.4375C9 34.7553 13.5552 30.1563 19.1833 30.1563H22.0929C24.275 30.1563 26.2935 30.8447 27.9483 32.0197V32.0289ZM49.7333 52.1875V50.2139C51.5518 47.9465 52.6429 45.0549 52.6429 41.9063C52.6429 37.9773 50.9426 34.4432 48.2422 32.0197C49.897 30.8447 51.9155 30.1563 54.0976 30.1563H57.0071C62.6353 30.1563 67.1905 34.7553 67.1905 40.4375C67.1905 44.5408 64.8083 48.075 61.3714 49.7273V52.1875C61.3714 53.8123 60.0712 55.125 58.4619 55.125H52.6429C51.0335 55.125 49.7333 53.8123 49.7333 52.1875ZM60.644 22.0781C60.644 24.9146 58.3619 27.2188 55.5524 27.2188C52.7429 27.2188 50.4607 24.9146 50.4607 22.0781C50.4607 19.2416 52.7429 16.9375 55.5524 16.9375C58.3619 16.9375 60.644 19.2416 60.644 22.0781ZM61.3714 36.5545V44.3297C62.2807 43.2924 62.8262 41.9338 62.8262 40.4467C62.8262 38.9596 62.2807 37.5918 61.3714 36.5637V36.5545ZM38.0952 28.6875C34.8857 28.6875 32.2762 26.0529 32.2762 22.8125C32.2762 19.5721 34.8857 16.9375 38.0952 16.9375C41.3048 16.9375 43.9143 19.5721 43.9143 22.8125C43.9143 26.0529 41.3048 28.6875 38.0952 28.6875ZM30.8214 41.9063C30.8214 43.3934 31.367 44.752 32.2762 45.7893V38.0232C31.367 39.0605 30.8214 40.4191 30.8214 41.9063ZM43.9143 38.0232V45.7984C44.8235 44.7611 45.369 43.4025 45.369 41.9154C45.369 40.4283 44.8235 39.0605 43.9143 38.0324V38.0232ZM49.7333 41.9063C49.7333 46.0096 47.3512 49.5438 43.9143 51.1961V55.125C43.9143 56.7498 42.6141 58.0625 41.0048 58.0625H35.1857C33.5764 58.0625 32.2762 56.7498 32.2762 55.125V51.1961C28.8393 49.5438 26.4571 46.0096 26.4571 41.9063C26.4571 36.224 31.0124 31.625 36.6405 31.625H39.55C45.1781 31.625 49.7333 36.224 49.7333 41.9063Z" fill="#5D5CD6"/>
</g>
<defs>
<clipPath id="clip0_412_2603">
<rect width="58.1905" height="47" fill="white" transform="translate(9 14)"/>
</clipPath>
</defs>
</svg>
