<svg width="76" height="76" viewBox="0 0 76 76" fill="none" xmlns="http://www.w3.org/2000/svg">
<rect width="76" height="76" rx="16" fill="white"/>
<path d="M36.8022 55.4709C36.7107 55.8304 36.5025 56.1493 36.2103 56.3778C35.9181 56.6064 35.5583 56.7315 35.1874 56.7338C35.0539 56.7333 34.9212 56.7124 34.794 56.6717L28.5417 55.119C28.0346 54.9909 27.5658 54.7423 27.1753 54.3943L22.5171 50.3365C22.354 50.1952 22.2203 50.023 22.1237 49.83C22.0271 49.637 21.9694 49.4268 21.954 49.2115C21.9387 48.9961 21.9658 48.7799 22.034 48.5751C22.1022 48.3703 22.2101 48.1809 22.3515 48.0178C22.4928 47.8547 22.665 47.721 22.858 47.6244C23.051 47.5278 23.2612 47.4701 23.4765 47.4547C23.6918 47.4394 23.9081 47.4665 24.1129 47.5347C24.3177 47.6029 24.5071 47.7108 24.6702 47.8522L29.3491 51.91L35.5808 53.4627C36.0069 53.5705 36.3738 53.8414 36.6022 54.217C36.8307 54.5926 36.9025 55.0429 36.8022 55.4709V55.4709ZM64.2546 35.7615C64.1184 36.1785 63.8998 36.5638 63.6117 36.8946C63.3236 37.2254 62.972 37.4948 62.5776 37.6869L57.7538 40.1092L54.669 43.7322H54.6276C54.6276 43.7529 54.6069 43.7529 54.6069 43.7736H54.5862L46.9675 51.3924C46.3361 52.0096 45.4902 52.3583 44.6073 52.3654C44.3418 52.363 44.0777 52.3282 43.8206 52.2619L31.8128 49.3014C31.3594 49.1956 30.9352 48.9905 30.5706 48.701L19.3909 39.9643L14.4222 37.4799C13.6285 37.0776 13.0258 36.3782 12.7452 35.5338C12.6126 35.1154 12.5644 34.6748 12.6035 34.2377C12.6426 33.8005 12.7682 33.3755 12.9729 32.9873L18.0659 23.2361C18.4684 22.4688 19.1539 21.8883 19.9771 21.6178C20.8003 21.3472 21.6965 21.4079 22.4757 21.7869L27.1132 24.1057L37.1956 21.1658C37.9514 20.9599 38.7549 21.0183 39.4729 21.3315L46.305 24.4369H49.7003L54.5241 22.0147C55.2999 21.6287 56.1961 21.562 57.0205 21.8291C57.8449 22.0961 58.5318 22.6756 58.9339 23.4432L64.0268 33.1943C64.2322 33.5861 64.3581 34.0146 64.3971 34.4552C64.4362 34.8958 64.3878 35.3397 64.2546 35.7615V35.7615ZM50.8597 42.842L44.3175 38.0803L42.6405 39.3432C41.2044 40.4119 39.4619 40.9891 37.6718 40.9891C35.8816 40.9891 34.1391 40.4119 32.703 39.3432L31.5851 38.4943C31.2031 38.2115 30.887 37.8493 30.6583 37.4326C30.4297 37.016 30.294 36.5547 30.2605 36.0806C30.2271 35.6065 30.2967 35.1308 30.4646 34.6862C30.6325 34.2416 30.8947 33.8386 31.2331 33.5049L39.328 25.3893L39.7007 25.0787L38.1065 24.3541L28.0241 27.2939L22.3929 38.101L32.6202 46.0924L44.6073 49.0943L50.8597 42.842ZM54.7311 38.5565L49.0999 27.7494H41.6675L33.5726 35.8443L34.6905 36.6932C35.5545 37.3288 36.5991 37.6717 37.6718 37.6717C38.7444 37.6717 39.789 37.3288 40.653 36.6932L43.303 34.7057C43.5856 34.4925 43.9291 34.3755 44.283 34.3717C44.637 34.368 44.9828 34.4778 45.2698 34.685L53.137 40.399L54.7311 38.5565Z" fill="#5D5CD6"/>
</svg>
