<svg width="76" height="76" viewBox="0 0 76 76" fill="none" xmlns="http://www.w3.org/2000/svg">
<rect width="76" height="76" rx="16" fill="white"/>
<path fill-rule="evenodd" clip-rule="evenodd" d="M36.7881 39.5399H36.8421C44.2919 39.5399 50.3308 33.501 50.3308 26.0512C50.3308 18.6014 44.2919 12.5625 36.8421 12.5625H36.7342C29.3343 12.6205 23.3534 18.6378 23.3534 26.0512C23.3534 33.4646 29.3343 39.4819 36.7342 39.5399H36.7881ZM47.5494 27.4001H44.8517C44.7977 28.3308 44.6844 29.2332 44.5212 30.0978H46.8494C47.1933 29.248 47.4321 28.3429 47.5508 27.4001H47.5494ZM45.2658 32.7956H43.809C43.5325 33.5914 43.2088 34.3373 42.8432 35.0212C43.7592 34.4068 44.5761 33.6563 45.2658 32.7956ZM41.7695 30.0978C41.9543 29.2521 42.0852 28.3483 42.1486 27.4001H38.191V30.0978H41.7695ZM38.191 32.7956H40.9197C40.7152 33.2798 40.4777 33.7494 40.2089 34.2011C39.5344 35.322 38.8371 36.0153 38.191 36.4078V32.7956ZM35.4932 30.0978V27.4001H31.4493C31.5127 28.3483 31.6436 29.2521 31.8283 30.0978H35.4932ZM32.6781 32.7956H35.4932V36.4591C34.8242 36.076 34.0931 35.3732 33.389 34.2011C33.1202 33.7494 32.8827 33.2798 32.6781 32.7956ZM29.0767 30.0978C28.9094 29.2065 28.7991 28.3054 28.7462 27.4001H26.1348C26.2521 28.3429 26.4909 29.248 26.8362 30.0978H29.0753H29.0767ZM28.4184 32.7956H29.7889C30.0519 33.5563 30.3608 34.2712 30.7061 34.9281C29.8445 34.3315 29.074 33.6132 28.4184 32.7956ZM44.8517 24.7023C44.7986 23.797 44.6882 22.896 44.5212 22.0046H46.8494C47.1933 22.8544 47.4321 23.7595 47.5508 24.7023H44.853H44.8517ZM45.2658 19.3069H43.809C43.5457 18.5409 43.2228 17.7967 42.8432 17.0812C43.7592 17.6957 44.5761 18.4462 45.2658 19.3069ZM38.191 19.3069H40.9197C40.7152 18.8227 40.4777 18.353 40.2089 17.9013C39.5344 16.7791 38.8371 16.0871 38.191 15.6946V19.3069ZM41.7695 22.0046H38.191V24.7023H42.1486C42.0888 23.795 41.9622 22.8933 41.7695 22.0046ZM35.4932 15.6433V19.3069H32.6781C32.894 18.7983 33.1341 18.3276 33.389 17.9013C34.0918 16.7292 34.8242 16.0264 35.4932 15.6433ZM35.4932 22.0046H31.8283C31.6357 22.8933 31.509 23.795 31.4493 24.7023H35.4932V22.0046ZM30.7047 17.1743C30.3464 17.8613 30.0398 18.5742 29.7875 19.3069H28.4184C29.074 18.4893 29.8446 17.7709 30.7061 17.1743H30.7047ZM29.078 22.0046H26.8362C26.4859 22.8695 26.2501 23.7764 26.1348 24.7023H28.7475C28.8015 23.7716 28.9148 22.8692 29.078 22.0046Z" fill="#5D5CD6"/>
<path d="M18.105 48.4706C18.8698 49.2826 19.6292 50.0892 20.3441 51.1144V53.0284H30.3703V51.1144C30.1909 49.6252 29.8752 46.9423 29.8469 46.1964C29.8092 45.147 28.4009 43.2343 28.4009 43.2343L24.0778 37.7848C24.0778 37.7848 22.8544 36.4926 22.1543 35.0601C21.4529 33.6263 19.9637 35.4297 19.7668 36.7192C19.5672 38.0088 19.9449 38.6886 19.9449 38.6886L22.4133 43.5958C22.4133 43.5958 19.551 39.6746 18.6621 38.0991C18.2116 37.3006 18.0861 35.6091 17.9445 33.7193C17.8083 31.8781 17.6572 29.8481 17.1783 28.2699C16.2071 25.0731 13.3988 25.873 12.9119 27.3028C12.4263 28.7312 12.5355 38.172 12.7122 39.7461C12.8512 40.979 13.5944 42.1849 14.432 43.5445C14.664 43.9222 14.9041 44.3107 15.1402 44.714C16.079 46.3218 17.0961 47.4023 18.105 48.4706ZM53.3429 51.1144C54.0578 50.0892 54.8172 49.2826 55.582 48.4706C56.591 47.4023 57.608 46.3218 58.5482 44.714C58.7829 44.3093 59.023 43.9222 59.255 43.5459C60.0927 42.1862 60.8359 40.979 60.9748 39.7461C61.1515 38.172 61.2621 28.7312 60.7752 27.3028C60.2882 25.873 57.4799 25.0731 56.5087 28.2713C56.0312 29.8494 55.8801 31.8781 55.7425 33.7193C55.6009 35.6091 55.4755 37.3006 55.0249 38.0991C54.136 39.676 51.2724 43.5958 51.2724 43.5958L53.7422 38.6886C53.7422 38.6886 54.1198 38.0088 53.9216 36.7192C53.7233 35.4297 52.2328 33.6263 51.5341 35.0601C50.8326 36.4926 49.6092 37.7848 49.6092 37.7848L45.2861 43.2343C45.2861 43.2343 43.8779 45.147 43.8401 46.1964C43.8131 46.9423 43.4961 49.6252 43.3167 51.1144V53.0284H53.3429V51.1144ZM39.5399 59.7728C39.5399 60.1305 39.682 60.4736 39.935 60.7266C40.1879 60.9795 40.531 61.1216 40.8888 61.1216H51.6797C52.0375 61.1216 52.3806 60.9795 52.6335 60.7266C52.8865 60.4736 53.0286 60.1305 53.0286 59.7728V57.075C53.0286 56.7173 52.8865 56.3742 52.6335 56.1212C52.3806 55.8683 52.0375 55.7262 51.6797 55.7262H40.8888C40.531 55.7262 40.1879 55.8683 39.935 56.1212C39.682 56.3742 39.5399 56.7173 39.5399 57.075V59.7728ZM34.1471 59.7728C34.1471 60.1305 34.005 60.4736 33.752 60.7266C33.4991 60.9795 33.156 61.1216 32.7983 61.1216H22.0073C21.6495 61.1216 21.3065 60.9795 21.0535 60.7266C20.8005 60.4736 20.6584 60.1305 20.6584 59.7728V57.075C20.6584 56.7173 20.8005 56.3742 21.0535 56.1212C21.3065 55.8683 21.6495 55.7262 22.0073 55.7262H32.7983C33.156 55.7262 33.4991 55.8683 33.752 56.1212C34.005 56.3742 34.1471 56.7173 34.1471 57.075V59.7728Z" fill="#5D5CD6"/>
</svg>
