<svg width="16" height="16" viewBox="0 0 16 16" fill="none" xmlns="http://www.w3.org/2000/svg">
<path d="M14.5402 1.30648C13.9946 0.76093 13.3382 0.488525 12.5701 0.488525H3.27633C2.50824 0.488525 1.85179 0.76093 1.30624 1.30648C0.760686 1.85204 0.488281 2.50849 0.488281 3.27658V12.5703C0.488281 13.3384 0.760686 13.9949 1.30624 14.5404C1.85179 15.086 2.50824 15.3584 3.27633 15.3584H5.44515C5.58656 15.3584 5.693 15.3532 5.76445 15.3435C5.84758 15.3268 5.92261 15.2825 5.97731 15.2177C6.04801 15.1433 6.08374 15.0354 6.08374 14.894L6.07853 14.2353C6.07555 13.8155 6.07406 13.4836 6.07406 13.238L5.85078 13.2767C5.70937 13.3027 5.53074 13.3139 5.31416 13.3109C5.08841 13.3067 4.86338 13.2841 4.64134 13.2432C4.40496 13.1995 4.18244 13.1 3.99233 12.9529C3.79323 12.8023 3.64473 12.5946 3.5666 12.3575L3.46985 12.1342C3.38829 11.9581 3.28584 11.7924 3.16469 11.6407C3.02626 11.4599 2.88559 11.3378 2.74343 11.2731L2.67645 11.2247C2.62974 11.1912 2.58726 11.1522 2.54992 11.1086C2.51427 11.0681 2.48491 11.0224 2.46284 10.9731C2.44349 10.9277 2.45987 10.8905 2.51122 10.8615C2.56332 10.8317 2.65635 10.8176 2.79256 10.8176L2.98607 10.8473C3.11483 10.8726 3.27485 10.9501 3.46464 11.0788C3.6567 11.2098 3.81715 11.3819 3.93427 11.5827C4.08313 11.8469 4.26175 12.0486 4.47164 12.1878C4.68153 12.3262 4.8929 12.3962 5.10576 12.3962C5.31863 12.3962 5.50246 12.3798 5.65801 12.3478C5.80844 12.3167 5.95461 12.2677 6.09342 12.2019C6.15147 11.7702 6.30926 11.4368 6.56752 11.2046C6.23287 11.1718 5.90121 11.1136 5.5754 11.0304C5.25744 10.9431 4.95165 10.8163 4.66515 10.6531C4.36539 10.4899 4.10062 10.2694 3.8859 10.0041C3.67973 9.74581 3.51004 9.40717 3.37756 8.98814C3.24582 8.56837 3.17958 8.08385 3.17958 7.53532C3.17958 6.75457 3.43412 6.08994 3.94395 5.54066C3.70578 4.95417 3.72811 4.29549 4.01168 3.56685C4.19924 3.50805 4.47685 3.55196 4.84452 3.69709C5.21219 3.84223 5.48162 3.96652 5.6528 4.06923C5.82399 4.17343 5.96093 4.26051 6.06439 4.33122C6.66947 4.16283 7.29477 4.07818 7.92284 4.07965C8.56217 4.07965 9.18141 4.16375 9.78204 4.33122L10.1497 4.099C10.4325 3.9292 10.7308 3.78665 11.0406 3.67328C11.383 3.54377 11.6435 3.50879 11.8251 3.56685C12.1153 4.29624 12.1406 4.95417 11.9017 5.54141C12.4116 6.08994 12.6669 6.75457 12.6669 7.53606C12.6669 8.08459 12.6006 8.5706 12.4681 8.99261C12.3364 9.41536 12.1652 9.754 11.9553 10.0093C11.7368 10.2712 11.4709 10.4896 11.1716 10.6531C10.859 10.8272 10.5553 10.953 10.2614 11.0304C9.93557 11.1138 9.6039 11.1723 9.26924 11.2053C9.60416 11.4956 9.77237 11.9533 9.77237 12.5793V14.894C9.77237 15.0034 9.788 15.0919 9.82074 15.1597C9.8358 15.1923 9.85726 15.2216 9.88385 15.2457C9.91045 15.2699 9.94163 15.2885 9.97555 15.3003C10.047 15.3256 10.1095 15.342 10.1646 15.348C10.2197 15.3554 10.2986 15.3576 10.4013 15.3576H12.5701C13.3382 15.3576 13.9946 15.0852 14.5402 14.5397C15.085 13.9949 15.3581 13.3377 15.3581 12.5696V3.27658C15.3581 2.50849 15.085 1.85204 14.5394 1.30648H14.5402Z" fill="white"/>
</svg>
