<svg width="13" height="13" viewBox="0 0 13 13" fill="none" xmlns="http://www.w3.org/2000/svg">
<path d="M9.79081 12.8854H1.60378C1.209 12.8854 0.830378 12.7286 0.55122 12.4495C0.272063 12.1703 0.115234 11.7917 0.115234 11.3969V3.20988C0.115234 2.81509 0.272063 2.43647 0.55122 2.15731C0.830378 1.87815 1.209 1.72133 1.60378 1.72133H4.58088V3.20988H1.60378V11.3969H9.79081V8.4198H11.2794V11.3969C11.2794 11.7917 11.1225 12.1703 10.8434 12.4495C10.5642 12.7286 10.1856 12.8854 9.79081 12.8854ZM5.84615 8.20173L4.79672 7.14932L9.48044 2.4656H6.81371V0.977051H12.0236V6.18697H10.5351V3.51875L5.84615 8.20173Z" fill="white"/>
</svg>
