<svg width="25" height="25" viewBox="0 0 25 25" fill="none" xmlns="http://www.w3.org/2000/svg">
<path d="M17.6963 2.91211H7.66177C4.89083 2.91211 2.64453 5.1584 2.64453 7.92935V17.9638C2.64453 20.7348 4.89083 22.9811 7.66177 22.9811H17.6963C20.4672 22.9811 22.7135 20.7348 22.7135 17.9638V7.92935C22.7135 5.1584 20.4672 2.91211 17.6963 2.91211Z" fill="#5D5CD6" stroke="#EFEFFB" stroke-width="1.20414" stroke-linecap="round" stroke-linejoin="round"/>
<path d="M16.8321 12.5383C16.9559 13.3734 16.8133 14.2263 16.4244 14.9757C16.0356 15.7251 15.4204 16.3328 14.6663 16.7123C13.9121 17.0919 13.0576 17.224 12.224 17.0899C11.3905 16.9558 10.6205 16.5622 10.0235 15.9653C9.42654 15.3683 9.03301 14.5983 8.89888 13.7647C8.76476 12.9312 8.89687 12.0766 9.27644 11.3225C9.656 10.5684 10.2637 9.95318 11.0131 9.56434C11.7624 9.17551 12.6153 9.03286 13.4505 9.1567C14.3023 9.28302 15.0909 9.67996 15.6999 10.2889C16.3088 10.8978 16.7058 11.6865 16.8321 12.5383Z" fill="#5D5CD6" stroke="#EFEFFB" stroke-width="1.20414" stroke-linecap="round" stroke-linejoin="round"/>
<path d="M18.198 7.42773H18.208" stroke="#EFEFFB" stroke-width="1.20414" stroke-linecap="round" stroke-linejoin="round"/>
</svg>
