<svg width="25" height="25" viewBox="0 0 25 25" fill="none" xmlns="http://www.w3.org/2000/svg">
<g clip-path="url(#clip0_443_1692)">
<path d="M0.637695 1.79719C0.637695 0.844419 1.42942 0.0722656 2.40627 0.0722656H22.9519C23.9287 0.0722656 24.7205 0.844419 24.7205 1.79719V22.4301C24.7205 23.3829 23.9287 24.155 22.9519 24.155H2.40627C1.42942 24.155 0.637695 23.3829 0.637695 22.4301V1.79719ZM8.07776 20.2325V9.35767H4.46384V20.2325H8.07776ZM6.27156 7.87207C7.53138 7.87207 8.31558 7.0382 8.31558 5.99361C8.293 4.92645 7.53289 4.11516 6.29564 4.11516C5.05839 4.11516 4.25011 4.92795 4.25011 5.99361C4.25011 7.0382 5.0343 7.87207 6.24747 7.87207H6.27156ZM13.6589 20.2325V14.1592C13.6589 13.8341 13.683 13.5089 13.7794 13.2771C14.0398 12.6284 14.6343 11.9556 15.6337 11.9556C16.9417 11.9556 17.464 12.952 17.464 14.4151V20.2325H21.0779V13.9951C21.0779 10.6536 19.2958 9.10029 16.9176 9.10029C15 9.10029 14.1406 10.1539 13.6589 10.896V10.9336H13.6349C13.6429 10.921 13.6509 10.9085 13.6589 10.896V9.35767H10.0465C10.0917 10.3782 10.0465 20.2325 10.0465 20.2325H13.6589Z" fill="#5D5CD6"/>
</g>
<defs>
<clipPath id="clip0_443_1692">
<rect width="24.0828" height="24.0828" fill="white" transform="translate(0.637695 0.0722656)"/>
</clipPath>
</defs>
</svg>
