<svg width="25" height="25" viewBox="0 0 25 25" fill="none" xmlns="http://www.w3.org/2000/svg">
<path d="M15.1878 10.2776C14.3549 10.2776 13.6826 9.60528 13.6826 8.77241V3.75517C13.6826 2.92231 14.3549 2.25 15.1878 2.25C16.0207 2.25 16.693 2.92231 16.693 3.75517V8.77241C16.693 9.60528 16.0207 10.2776 15.1878 10.2776Z" fill="#5D5CD6" stroke="#5D5CD6" stroke-width="1.00345" stroke-linecap="round" stroke-linejoin="round"/>
<path d="M21.2083 10.276H19.7031V8.7708C19.7031 7.93794 20.3754 7.26562 21.2083 7.26562C22.0412 7.26562 22.7135 7.93794 22.7135 8.7708C22.7135 9.60366 22.0412 10.276 21.2083 10.276Z" fill="#5D5CD6" stroke="#5D5CD6" stroke-width="1.00345" stroke-linecap="round" stroke-linejoin="round"/>
<path d="M10.1705 14.291C11.0033 14.291 11.6756 14.9633 11.6756 15.7962V20.8134C11.6756 21.6463 11.0033 22.3186 10.1705 22.3186C9.33759 22.3186 8.66528 21.6463 8.66528 20.8134V15.7962C8.66528 14.9633 9.33759 14.291 10.1705 14.291Z" fill="#5D5CD6" stroke="#5D5CD6" stroke-width="1.00345" stroke-linecap="round" stroke-linejoin="round"/>
<path d="M4.1497 14.291H5.65488V15.7962C5.65488 16.6291 4.98257 17.3014 4.1497 17.3014C3.31684 17.3014 2.64453 16.6291 2.64453 15.7962C2.64453 14.9633 3.31684 14.291 4.1497 14.291Z" fill="#5D5CD6" stroke="#5D5CD6" stroke-width="1.00345" stroke-linecap="round" stroke-linejoin="round"/>
<path d="M14.686 14.7923C14.686 13.9594 15.3583 13.2871 16.1912 13.2871H21.2084C22.0413 13.2871 22.7136 13.9594 22.7136 14.7923C22.7136 15.6251 22.0413 16.2975 21.2084 16.2975H16.1912C15.3583 16.2975 14.686 15.6251 14.686 14.7923Z" fill="#5D5CD6" stroke="#5D5CD6" stroke-width="1.00345" stroke-linecap="round" stroke-linejoin="round"/>
<path d="M16.1912 19.3086H14.686V20.8138C14.686 21.6466 15.3583 22.3189 16.1912 22.3189C17.0241 22.3189 17.6964 21.6466 17.6964 20.8138C17.6964 19.9809 17.0241 19.3086 16.1912 19.3086Z" fill="#5D5CD6" stroke="#5D5CD6" stroke-width="1.00345" stroke-linecap="round" stroke-linejoin="round"/>
<path d="M10.6721 9.7747C10.6721 8.94184 9.99981 8.26953 9.16694 8.26953H4.1497C3.31684 8.26953 2.64453 8.94184 2.64453 9.7747C2.64453 10.6076 3.31684 11.2799 4.1497 11.2799H9.16694C9.99981 11.2799 10.6721 10.6076 10.6721 9.7747Z" fill="#5D5CD6" stroke="#5D5CD6" stroke-width="1.00345" stroke-linecap="round" stroke-linejoin="round"/>
<path d="M9.16704 5.26034H10.6722V3.75517C10.6722 2.92231 9.9999 2.25 9.16704 2.25C8.33418 2.25 7.66187 2.92231 7.66187 3.75517C7.66187 4.58803 8.33418 5.26034 9.16704 5.26034Z" fill="#5D5CD6" stroke="#5D5CD6" stroke-width="1.00345" stroke-linecap="round" stroke-linejoin="round"/>
</svg>
