<svg width="25" height="25" viewBox="0 0 25 25" fill="none" xmlns="http://www.w3.org/2000/svg">
<g clip-path="url(#clip0_443_1679)">
<path d="M23.717 3.74447C22.7561 4.42227 21.6921 4.94069 20.5662 5.27974C19.9618 4.58486 19.1586 4.09235 18.2653 3.86882C17.3719 3.64528 16.4314 3.70151 15.5711 4.0299C14.7107 4.35829 13.9719 4.94299 13.4547 5.70492C12.9375 6.46685 12.6667 7.36926 12.679 8.29009V9.29353C10.9156 9.33926 9.16825 8.94816 7.59257 8.15507C6.01689 7.36198 4.66181 6.19151 3.64801 4.74791C3.64801 4.74791 -0.365783 13.7789 8.66525 17.7927C6.59868 19.1955 4.13685 19.8989 1.64111 19.7996C10.6721 24.8169 21.7101 19.7996 21.7101 8.25998C21.7092 7.98048 21.6823 7.70166 21.6298 7.42712C22.6539 6.41714 23.3766 5.14198 23.717 3.74447Z" fill="#5D5CD6" stroke="#5D5CD6" stroke-width="1.00345" stroke-linecap="round" stroke-linejoin="round"/>
</g>
<defs>
<clipPath id="clip0_443_1679">
<rect width="24.0828" height="24.0828" fill="white" transform="translate(0.637695 0.734375)"/>
</clipPath>
</defs>
</svg>
