<svg width="24" height="24" viewBox="0 0 24 24" fill="none" xmlns="http://www.w3.org/2000/svg">
<g clip-path="url(#clip0_488_1806)">
<path d="M16.23 7.102C14.228 6.966 9.768 6.967 7.769 7.102C5.604 7.25 5.35 8.558 5.333 12C5.35 15.436 5.603 16.75 7.77 16.898C9.769 17.033 14.229 17.034 16.231 16.898C18.396 16.75 18.651 15.441 18.668 12C18.65 8.564 18.397 7.25 16.23 7.102V7.102ZM10 14.222V9.778L14.778 11.996L10 14.222ZM12 2C17.514 2 22 6.486 22 12C22 17.514 17.514 22 12 22C6.486 22 2 17.514 2 12C2 6.486 6.486 2 12 2V2ZM12 0C5.373 0 0 5.373 0 12C0 18.627 5.373 24 12 24C18.627 24 24 18.627 24 12C24 5.373 18.627 0 12 0V0Z" fill="#5D5CD6"/>
</g>
<defs>
<clipPath id="clip0_488_1806">
<rect width="24" height="24" fill="white"/>
</clipPath>
</defs>
</svg>
